<svg width="19" height="15" viewBox="0 0 19 15" fill="none" xmlns="http://www.w3.org/2000/svg">
<path d="M1.5252 7.03437H16.581L10.8159 1.99796C10.514 1.73423 10.5023 1.29607 10.7899 1.01919C11.077 0.742661 11.5547 0.731585 11.857 0.995312L18.441 6.74746C18.7259 7.00911 18.8832 7.35659 18.8832 7.72657C18.8832 8.0962 18.7259 8.44403 18.4277 8.7171L11.8566 14.4574C11.7106 14.5852 11.5234 14.6485 11.3362 14.6485C11.137 14.6485 10.9378 14.5765 10.7894 14.4336C10.502 14.1567 10.5136 13.7189 10.8155 13.4552L16.6048 8.41877H1.5252C1.10861 8.41877 0.770508 8.10866 0.770508 7.72657C0.770508 7.34448 1.10861 7.03437 1.5252 7.03437Z" fill="white"/>
</svg>
