<svg width="19" height="15" viewBox="0 0 19 15" fill="none" xmlns="http://www.w3.org/2000/svg">
<path d="M17.4748 7.03437H2.419L8.18413 1.99796C8.48596 1.73423 8.49769 1.29607 8.21014 1.01919C7.92301 0.742661 7.44531 0.731585 7.14305 0.995312L0.559031 6.74746C0.274111 7.00911 0.116776 7.35659 0.116776 7.72657C0.116776 8.0962 0.274111 8.44403 0.57229 8.7171L7.14338 14.4574C7.28942 14.5852 7.47659 14.6485 7.66376 14.6485C7.863 14.6485 8.06223 14.5765 8.21056 14.4336C8.49803 14.1567 8.48639 13.7189 8.18447 13.4552L2.3952 8.41877H17.4748C17.8914 8.41877 18.2295 8.10866 18.2295 7.72657C18.2295 7.34448 17.8914 7.03437 17.4748 7.03437Z" fill="white"/>
</svg>
