<svg width="28" height="26" viewBox="0 0 28 26" fill="none" xmlns="http://www.w3.org/2000/svg">
<path fill-rule="evenodd" clip-rule="evenodd" d="M0 0.866665C0 0.388019 0.400086 0 0.893617 0H5.65957C6.08549 0 6.45222 0.291533 6.53581 0.696576L7.58443 5.77777H27.1064C27.3727 5.77777 27.6251 5.89297 27.7949 6.09198C27.9647 6.29099 28.0341 6.55307 27.9842 6.80678L26.0765 16.5084C25.9267 17.2399 25.5163 17.897 24.9173 18.3647C24.3207 18.8305 23.5747 19.0788 22.8091 19.0666H11.2436C10.478 19.0788 9.73207 18.8305 9.13544 18.3647C8.5367 17.8972 8.12647 17.2405 7.97648 16.5094L5.98432 6.85622C5.97737 6.82938 5.97171 6.80204 5.9674 6.77426L4.92709 1.73333H0.893617C0.400086 1.73333 0 1.34531 0 0.866665ZM7.94215 7.5111L9.72926 16.1707C9.79735 16.5032 9.98387 16.8019 10.2562 17.0145C10.5284 17.227 10.8691 17.34 11.2186 17.3335L11.2357 17.3333H22.817L22.8341 17.3335C23.1836 17.34 23.5243 17.227 23.7966 17.0145C24.0681 16.8025 24.2543 16.5049 24.3229 16.1735L24.3235 16.1707L26.0262 7.5111H7.94215ZM8.34046 23.9778C8.34046 22.8609 9.274 21.9556 10.4256 21.9556C11.5771 21.9556 12.5107 22.8609 12.5107 23.9778C12.5107 25.0946 11.5771 26 10.4256 26C9.274 26 8.34046 25.0946 8.34046 23.9778ZM21.4468 23.9778C21.4468 22.8609 22.3803 21.9556 23.5319 21.9556C24.6835 21.9556 25.617 22.8609 25.617 23.9778C25.617 25.0946 24.6835 26 23.5319 26C22.3803 26 21.4468 25.0946 21.4468 23.9778Z" fill="#2E3C53"/>
</svg>
