<svg width="16" height="16" viewBox="0 0 16 16" fill="none" xmlns="http://www.w3.org/2000/svg">
<path fill-rule="evenodd" clip-rule="evenodd" d="M0 7.96C0 3.57068 3.57068 0 7.96 0C12.3493 0 15.92 3.57068 15.92 7.96C15.92 12.3493 12.3493 15.92 7.96 15.92C3.57068 15.92 0 12.3493 0 7.96ZM7.68086 10.5852L11.9926 6.27361C12.2519 6.01417 12.2519 5.59501 11.9926 5.33569C11.7331 5.07625 11.314 5.07625 11.0547 5.33569L7.21191 9.17832L5.52507 7.49149C5.26563 7.23205 4.84647 7.23205 4.58716 7.49149C4.32772 7.7508 4.32772 8.17008 4.58716 8.4294L6.74295 10.5852C6.8723 10.7145 7.04211 10.7796 7.21191 10.7796C7.38171 10.7796 7.55151 10.7145 7.68086 10.5852Z" fill="#FF0000"/>
</svg>
