<svg width="15" height="15" viewBox="0 0 15 15" fill="none" xmlns="http://www.w3.org/2000/svg">
<path fill-rule="evenodd" clip-rule="evenodd" d="M7.8919 0.0556641C3.9961 0.0556641 0.837891 3.2139 0.837891 7.1097C0.837891 11.0056 3.9961 14.1638 7.8919 14.1638C11.7878 14.1638 14.946 11.0056 14.946 7.1097C14.946 3.2139 11.7878 0.0556641 7.8919 0.0556641ZM7.92996 4.0133C7.92996 3.6592 7.64286 3.3721 7.28876 3.3721C6.93456 3.3721 6.64746 3.6592 6.64746 4.0133V7.861C6.64746 8.1039 6.78466 8.326 7.00196 8.4346L9.56706 9.7171C9.88386 9.8755 10.269 9.7471 10.4274 9.4304C10.5858 9.1136 10.4574 8.7284 10.1406 8.57L7.92996 7.4647V4.0133Z" fill="#FF0000"/>
</svg>
