<svg width="21" height="40" viewBox="0 0 21 40" fill="none" xmlns="http://www.w3.org/2000/svg">
<path d="M2.02218 0.485076C1.80118 0.549823 1.48413 0.696 1.31441 0.801264C0.872045 1.08528 0.356016 1.75023 0.186655 2.269C0.0317386 2.71508 0.0317383 2.76354 0.0317383 19.8171V36.9191L0.193877 37.3895C0.407655 38.0301 1.0786 38.7761 1.69032 39.0434L2.13268 39.238L10.3451 39.2624C19.405 39.2866 19.0659 39.3028 19.8033 38.7841C20.2457 38.4679 20.5699 38.0218 20.7909 37.4299L20.9679 36.9675V19.8171V2.66622L20.7909 2.20386C20.4518 1.30375 19.8549 0.719833 19.0143 0.476733C18.3733 0.298381 2.64907 0.298382 2.02218 0.485076ZM13.1538 2.05808C13.3752 2.30118 13.3528 2.73097 13.1097 2.9419C12.918 3.10396 12.8295 3.1123 10.522 3.1123H8.13363L7.95668 2.90972C7.7281 2.66662 7.72088 2.33415 7.93465 2.0827L8.08957 1.89641H10.552C12.9108 1.89601 13.0137 1.90395 13.1538 2.05808ZM19.973 18.925V33.2372H10.5372H1.10099L1.0786 19.006C1.07138 11.1808 1.0786 4.72589 1.10063 4.66902C1.12265 4.58795 3.05424 4.5717 10.5513 4.58795L19.9727 4.61214L19.973 18.925ZM11.038 34.5024C11.3992 34.608 11.8859 35.0943 12.0553 35.5077C12.3723 36.2621 12.1069 37.2837 11.4728 37.7782C11.215 37.9729 11.0673 38.0214 10.6618 38.046C9.88755 38.0949 9.33468 37.7623 9.03243 37.0486C8.42107 35.6054 9.63007 34.0727 11.038 34.5024Z" fill="#2E3C53"/>
<path d="M4.53626 27.0838C4.44779 27.2053 4.38135 27.3595 4.38135 27.4405C4.38135 27.5216 4.44779 27.6756 4.53626 27.7971L4.6836 28.0082H10.5H16.3164L16.4638 27.7971C16.6555 27.5216 16.6555 27.3595 16.4638 27.0838L16.3164 26.8729H10.5H4.6836L4.53626 27.0838Z" fill="#2E3C53"/>
<path d="M9.39423 6.82488C8.7677 7.00309 8.31054 7.31148 7.89779 7.81432C7.38176 8.44663 7.24887 8.92528 7.16798 10.4093C7.10154 11.5204 7.07951 11.6744 6.94698 11.7717C6.81446 11.877 6.79965 11.9664 6.8289 12.5909C6.84371 13.1665 6.89534 13.3774 7.07951 13.8154C7.20482 14.1074 7.41137 14.4804 7.5439 14.6426C7.66921 14.8045 7.77248 14.9829 7.77248 15.0398C7.77248 15.2102 8.20004 16.167 8.40659 16.4669L8.58354 16.7264L8.27407 16.9289C7.89057 17.172 6.43854 17.9343 5.23676 18.5265C4.11623 19.07 3.72551 19.4751 3.23909 20.5619C2.73787 21.6972 2.41359 23.3027 2.60498 23.692C2.78915 24.073 3.5854 24.3166 5.70837 24.6327C8.95946 25.1273 12.0408 25.1273 15.2919 24.6327C17.4149 24.3166 18.2111 24.073 18.3953 23.692C18.6607 23.1487 18.0194 20.7807 17.3116 19.7267C16.9505 19.1832 16.5818 18.9237 15.2695 18.2752C14.1049 17.7075 12.6673 16.9373 12.5124 16.7995C12.4388 16.7347 12.4608 16.6615 12.5937 16.459C12.8075 16.1508 13.0285 15.6642 13.1538 15.2344C13.2054 15.056 13.3455 14.7803 13.4708 14.6263C13.5889 14.4721 13.7951 14.107 13.9204 13.8151C14.1046 13.3933 14.1562 13.158 14.171 12.6231C14.2006 12.0474 14.1858 11.9501 14.0457 11.7961C13.9132 11.6499 13.8908 11.4798 13.8319 10.393C13.7803 9.44456 13.7214 9.03885 13.6033 8.6902C13.3968 8.10628 12.8147 7.39291 12.3355 7.1172C11.5468 6.67863 10.323 6.55712 9.39423 6.82488Z" fill="#2E3C53"/>
<path d="M2.83273 30.036C2.64098 30.2469 2.64098 30.6931 2.81793 30.8713C2.94323 31.0013 3.58456 31.0092 10.5143 31.0092C17.7387 31.0092 18.0778 31.0013 18.1883 30.8633C18.358 30.6607 18.3432 30.231 18.1662 30.0364C18.0189 29.8742 17.9228 29.8742 10.4995 29.8742C3.07612 29.8739 2.98006 29.8739 2.83273 30.036Z" fill="#2E3C53"/>
</svg>
