<svg width="27" height="22" viewBox="0 0 27 22" fill="none" xmlns="http://www.w3.org/2000/svg">
<path fill-rule="evenodd" clip-rule="evenodd" d="M2.5853 3.1215L13.5 10.7303L24.4147 3.1215C24.2117 2.7218 23.7943 2.4444 23.3182 2.4444H3.6818C3.2057 2.4444 2.7883 2.7218 2.5853 3.1215ZM24.5455 6.0141L14.2038 13.2235C13.7812 13.5181 13.2188 13.5181 12.7962 13.2235L2.4545 6.0141V18.3333C2.4545 19.0028 3.0096 19.5556 3.6818 19.5556H23.3182C23.9904 19.5556 24.5455 19.0028 24.5455 18.3333V6.0141ZM0 3.6667C0 1.6472 1.654 0 3.6818 0H23.3182C25.346 0 27 1.6472 27 3.6667V18.3333C27 20.3528 25.346 22 23.3182 22H3.6818C1.654 22 0 20.3528 0 18.3333V3.6667Z" fill="white"/>
</svg>
