<?xml version="1.0" encoding="UTF-8" standalone="no"?>
<svg
   width="30"
   height="30"
   viewBox="0 0 30 30"
   fill="none"
   version="1.1"
   id="svg1"
   sodipodi:docname="heart.svg"
   inkscape:version="1.3.2 (091e20e, 2023-11-25, custom)"
   xmlns:inkscape="http://www.inkscape.org/namespaces/inkscape"
   xmlns:sodipodi="http://sodipodi.sourceforge.net/DTD/sodipodi-0.dtd"
   xmlns="http://www.w3.org/2000/svg"
   xmlns:svg="http://www.w3.org/2000/svg">
  <defs
     id="defs1" />
  <sodipodi:namedview
     id="namedview1"
     pagecolor="#ffffff"
     bordercolor="#cccccc"
     borderopacity="1"
     inkscape:showpageshadow="0"
     inkscape:pageopacity="1"
     inkscape:pagecheckerboard="0"
     inkscape:deskcolor="#d1d1d1"
     inkscape:zoom="39.366667"
     inkscape:cx="14.987299"
     inkscape:cy="15"
     inkscape:window-width="3440"
     inkscape:window-height="1377"
     inkscape:window-x="-8"
     inkscape:window-y="-8"
     inkscape:window-maximized="1"
     inkscape:current-layer="svg1" />
  <path
     style="color:#000000;fill:#333333;stroke-linecap:round;stroke-linejoin:round;-inkscape-stroke:none"
     d="m 18.5625,8.3847656 c -0.730685,0.081502 -1.39854,0.3234791 -1.966797,0.6445313 -0.783352,0.4425762 -1.325074,0.9985171 -1.75,1.5449221 C 14.489122,10.049143 14.203281,9.5008524 13.523438,9.0527344 12.519567,8.3910349 11.086216,8.0657966 9.4648438,8.7070313 6.1945389,10.000426 5.4932303,13.962572 7.4550781,16.548828 c 0.9283782,1.223858 2.6602829,2.922989 4.1835939,4.357422 1.523311,1.434433 2.828125,2.582031 2.828125,2.582031 a 0.65006498,0.65006498 0 0 0 0.857422,0 c 0,0 1.30672,-1.147598 2.830078,-2.582031 1.523358,-1.434433 3.253243,-3.13356 4.18164,-4.357422 0.959924,-1.265422 1.449509,-2.836597 1.283204,-4.316406 C 23.452835,10.752613 22.553254,9.3591766 20.904297,8.7070313 20.086706,8.3836909 19.293185,8.3032634 18.5625,8.3847656 Z m -6.986328,1.2753907 c 0.467406,0.058423 0.869029,0.2389859 1.232422,0.4785157 0.726785,0.479059 1.258799,1.253636 1.507812,1.746094 a 0.65006498,0.65006498 0 0 0 1.160157,0.002 c 0.209758,-0.414683 0.875203,-1.225955 1.757812,-1.72461 0.882609,-0.498654 1.942091,-0.7401716 3.191406,-0.2460934 1.235541,0.4886434 1.778246,1.3760294 1.900391,2.4628904 0.122144,1.086861 -0.254616,2.366737 -1.025391,3.382813 -0.802301,1.057635 -2.531745,2.781729 -4.037109,4.199218 -1.273906,1.199543 -2.052877,1.880068 -2.367188,2.158204 -0.3143,-0.278136 -1.09332,-0.958661 -2.367187,-2.158204 C 11.023979,18.543448 9.2944776,16.819358 8.4921875,15.761719 6.9926988,13.784979 7.44477,10.904199 9.9433594,9.9160156 10.574887,9.6662535 11.108765,9.6017331 11.576172,9.6601563 Z"
     id="path1" />
</svg>
