<svg width="18" height="16" viewBox="0 0 18 16" fill="none" xmlns="http://www.w3.org/2000/svg">
<path d="M12.5623 0.384778C11.8316 0.46628 11.1638 0.708257 10.5955 1.02931C9.81215 1.47189 9.27043 2.02783 8.8455 2.57423C8.48892 2.04916 8.20308 1.50086 7.52324 1.05275C6.51937 0.391047 5.08602 0.0658089 3.46464 0.707044C0.194339 2.00044 -0.50697 5.96258 1.45488 8.54884C2.38326 9.7727 4.11516 11.4718 5.63847 12.9063C7.16178 14.3407 8.4666 15.4883 8.4666 15.4883C8.58518 15.5923 8.73755 15.6497 8.89531 15.6497C9.05306 15.6497 9.20543 15.5923 9.32402 15.4883C9.32402 15.4883 10.6307 14.3407 12.1541 12.9063C13.6775 11.4718 15.4073 9.7727 16.3357 8.54884C17.2957 7.28342 17.7852 5.71224 17.6189 4.23243C17.4526 2.75263 16.5531 1.35919 14.9041 0.707044C14.0865 0.383703 13.293 0.303276 12.5623 0.384778Z" fill="#333333"/>
</svg>
