<svg width="12" height="16" viewBox="0 0 12 16" fill="none" xmlns="http://www.w3.org/2000/svg">
<path d="M6.18072 0.898926C9.35102 0.898926 11.9299 3.34914 11.9299 6.3606C11.9299 10.3899 6.62552 15.1789 6.39972 15.381C6.33792 15.4358 6.25932 15.4634 6.18072 15.4634C6.10212 15.4634 6.02352 15.4358 5.96182 15.381C5.73602 15.1789 0.431641 10.3899 0.431641 6.3606C0.431641 3.34914 3.01052 0.898926 6.18072 0.898926ZM6.18072 9.3949C7.94182 9.3949 9.37472 8.0336 9.37472 6.3606C9.37472 4.6876 7.94182 3.32633 6.18072 3.32633C4.41972 3.32633 2.98682 4.6876 2.98682 6.3606C2.98682 8.0336 4.41972 9.3949 6.18072 9.3949Z" fill="white"/>
</svg>
