<svg width="21" height="21" viewBox="0 0 21 21" fill="none" xmlns="http://www.w3.org/2000/svg">
<path d="M17.211 12.9398C16.4945 12.2325 15.6 12.2325 14.8881 12.9398C14.3452 13.4782 13.8021 14.0168 13.2681 14.5644C13.1221 14.7149 12.9988 14.7468 12.8209 14.6465C12.4695 14.4548 12.0953 14.2998 11.7576 14.0898C10.1831 13.0994 8.86427 11.8263 7.69597 10.3934C7.11637 9.68151 6.60068 8.91941 6.24018 8.06151C6.16718 7.88801 6.18077 7.7739 6.32237 7.6325C6.86547 7.10771 7.39478 6.56921 7.92878 6.03081C8.67258 5.28231 8.67258 4.40611 7.92408 3.65321C7.49978 3.22421 7.07527 2.80441 6.65097 2.37541C6.21287 1.93731 5.77928 1.49471 5.33668 1.06121C4.62018 0.363006 3.72568 0.363005 3.01378 1.06571C2.46618 1.60421 1.94138 2.15641 1.38458 2.68581C0.868875 3.17401 0.608776 3.77181 0.553976 4.47011C0.467276 5.60631 0.745675 6.6787 1.13818 7.7237C1.94138 9.8868 3.16438 11.808 4.64758 13.5696C6.65098 15.9517 9.04218 17.8363 11.8396 19.1963C13.0993 19.8077 14.4045 20.2777 15.8236 20.3553C16.8003 20.4101 17.6491 20.1637 18.3291 19.4017C18.7946 18.8813 19.3193 18.4068 19.8122 17.9094C20.5424 17.1701 20.5469 16.2756 19.8214 15.5454C18.9543 14.6739 18.0826 13.8068 17.211 12.9398Z" fill="white"/>
</svg>
