<svg width="15" height="16" viewBox="0 0 15 16" fill="none" xmlns="http://www.w3.org/2000/svg">
<path opacity="0.4" fill-rule="evenodd" clip-rule="evenodd" d="M6.74999 1.6C3.8505 1.6 1.5 4.1072 1.5 7.19999C1.5 10.2928 3.8505 12.8 6.74999 12.8C8.16449 12.8 9.44834 12.2033 10.3924 11.233C10.4121 11.2057 10.4337 11.1794 10.4572 11.1543C10.4807 11.1293 10.5053 11.1062 10.5309 11.0852C11.4406 10.0782 12 8.70879 12 7.19999C12 4.1072 9.64949 1.6 6.74999 1.6ZM12.0239 11.6941C12.9476 10.4624 13.5 8.9 13.5 7.19999C13.5 3.22355 10.4779 0 6.74999 0C3.02207 0 0 3.22355 0 7.19999C0 11.1764 3.02207 14.4 6.74999 14.4C8.34375 14.4 9.8085 13.8108 10.9633 12.8255L13.7197 15.7657C14.0126 16.0781 14.4874 16.0781 14.7803 15.7657C15.0732 15.4533 15.0732 14.9467 14.7803 14.6343L12.0239 11.6941Z" fill="#5C697B"/>
</svg>
