<svg width="20" height="18" viewBox="0 0 20 18" fill="none" xmlns="http://www.w3.org/2000/svg">
<path d="M1.37494 7.82389C6.74364 5.43569 10.3236 3.86119 12.1148 3.10049C17.2292 0.928594 18.2919 0.551294 18.9846 0.538694C19.1369 0.536094 19.4776 0.574594 19.6982 0.757394C19.8845 0.911794 19.9358 1.12029 19.9603 1.26669C19.9848 1.41299 20.0154 1.74639 19.9911 2.00689C19.714 4.98009 18.5147 12.1954 17.9046 15.5255C17.6465 16.9346 17.1382 17.407 16.6461 17.4533C15.5766 17.5537 14.7645 16.7316 13.7287 16.0384C12.1078 14.9535 11.1921 14.2782 9.61884 13.2196C7.80054 11.9962 8.97924 11.3238 10.0154 10.225C10.2866 9.93739 14.9987 5.5613 15.0899 5.1643C15.1013 5.1147 15.1119 4.92959 15.0042 4.83189C14.8965 4.73419 14.7376 4.76759 14.6229 4.79409C14.4604 4.83179 11.871 6.5793 6.85494 10.0365C6.11994 10.5518 5.45424 10.8028 4.85774 10.7897C4.20014 10.7752 2.93534 10.4101 1.99504 10.098C0.841739 9.71519 -0.0749306 9.51279 0.00483937 8.86279C0.0464394 8.52419 0.503139 8.17789 1.37494 7.82389Z" fill="white"/>
</svg>
