<svg width="15" height="15" viewBox="0 0 15 15" fill="none" xmlns="http://www.w3.org/2000/svg">
<path fill-rule="evenodd" clip-rule="evenodd" d="M12.8144 2.18014C12.1226 1.48701 11.2994 0.937414 10.3925 0.563184C9.4857 0.188964 8.5133 -0.00245621 7.5316 2.37925e-05C3.41513 2.37925e-05 0.0640599 3.33436 0.0623999 7.4329C0.0623999 8.7428 0.40599 10.0213 1.05907 11.149L0 15L3.95923 13.9658C5.0544 14.5592 6.2814 14.8703 7.5283 14.8708H7.5316C11.6472 14.8708 14.9983 11.5365 15 7.4379C15.0028 6.4613 14.8111 5.4938 14.436 4.59131C14.0608 3.68885 13.5097 2.86934 12.8144 2.18014ZM7.5316 13.6164H7.5291C6.4172 13.6165 5.3258 13.3188 4.36938 12.7545L4.14309 12.6203L1.79367 13.2339L2.42013 10.9544L2.27287 10.7209C1.65123 9.736 1.32215 8.5961 1.32362 7.4329C1.32529 4.02657 4.10981 1.25527 7.5341 1.25527C8.3496 1.25346 9.1574 1.41265 9.9107 1.72362C10.664 2.03459 11.3478 2.49117 11.9226 3.06692C12.5005 3.63993 12.9585 4.32125 13.2703 5.0715C13.582 5.8217 13.7412 6.626 13.7387 7.4379C13.7371 10.8443 10.9526 13.6164 7.5316 13.6164ZM10.9367 8.9887C10.7496 8.8952 9.8328 8.4464 9.6614 8.3843C9.4908 8.3222 9.3669 8.2916 9.2421 8.477C9.1173 8.6625 8.7595 9.0807 8.6506 9.2049C8.5416 9.3291 8.4326 9.344 8.2462 9.2512C8.0599 9.1585 7.4584 8.9623 6.7454 8.3297C6.1905 7.837 5.8161 7.2293 5.7071 7.043C5.5982 6.8567 5.6955 6.7565 5.7895 6.6637C5.8735 6.5809 5.9759 6.4468 6.069 6.3383C6.1622 6.2299 6.193 6.1529 6.2554 6.0287C6.3178 5.9045 6.287 5.796 6.2396 5.7033C6.193 5.6097 5.8195 4.69559 5.6639 4.32382C5.5133 3.96364 5.3594 4.01166 5.2446 4.0067C5.1257 4.00186 5.0067 3.99965 4.88768 4.00007C4.79305 4.00247 4.69994 4.0243 4.61418 4.0642C4.52843 4.10409 4.45188 4.16119 4.38934 4.23191C4.21796 4.41821 3.73627 4.86698 3.73627 5.7811C3.73627 6.6952 4.40515 7.5787 4.49833 7.7029C4.5915 7.8271 5.8145 9.7025 7.6863 10.5073C8.1323 10.6986 8.48 10.8128 8.7504 10.8989C9.1972 11.0405 9.604 11.0198 9.9259 10.9726C10.2845 10.9196 11.0299 10.5239 11.1855 10.09C11.3411 9.6561 11.3411 9.2843 11.2945 9.2065C11.2479 9.1287 11.1223 9.0815 10.9367 8.9887Z" fill="white"/>
</svg>
