<svg width="50" height="50" viewBox="0 0 50 50" fill="none" xmlns="http://www.w3.org/2000/svg">
<g clip-path="url(#clip0_1_485)">
<path d="M21 22C24.5899 22 27.5 19.0899 27.5 15.5C27.5 11.9101 24.5899 9 21 9C17.4101 9 14.5 11.9101 14.5 15.5C14.5 19.0899 17.4101 22 21 22Z" fill="#7CBE69"/>
<path d="M49 32.5V40.5H44.5C44.5 39.7044 44.1839 38.9413 43.6213 38.3787C43.0587 37.8161 42.2956 37.5 41.5 37.5C40.7044 37.5 39.9413 37.8161 39.3787 38.3787C38.8161 38.9413 38.5 39.7044 38.5 40.5H35V24H43.5L49 32.5ZM45.5 32.5L42.5 27.5H38.5V32.5H45.5Z" fill="#7CBE69"/>
<path d="M11.875 41H7C6.86739 41 6.74021 40.9473 6.64645 40.8536C6.55268 40.7598 6.5 40.6326 6.5 40.5V15.5C6.5 15.3674 6.55268 15.2402 6.64645 15.1464C6.74021 15.0527 6.86739 15 7 15H12V16H7.5V40H11.875V41Z" fill="#495771"/>
<path d="M15 44C14.3078 44 13.6311 43.7947 13.0555 43.4101C12.4799 43.0256 12.0313 42.4789 11.7664 41.8394C11.5015 41.1999 11.4322 40.4961 11.5673 39.8172C11.7023 39.1383 12.0356 38.5146 12.5251 38.0251C13.0146 37.5356 13.6383 37.2023 14.3172 37.0673C14.9961 36.9322 15.6999 37.0015 16.3394 37.2664C16.9789 37.5313 17.5256 37.9799 17.9101 38.5555C18.2947 39.1311 18.5 39.8078 18.5 40.5C18.5 41.4283 18.1313 42.3185 17.4749 42.9749C16.8185 43.6312 15.9283 44 15 44ZM15 38C14.5055 38 14.0222 38.1466 13.6111 38.4213C13.2 38.696 12.8795 39.0865 12.6903 39.5433C12.5011 40.0001 12.4516 40.5028 12.548 40.9877C12.6445 41.4727 12.8826 41.9181 13.2322 42.2678C13.5819 42.6174 14.0273 42.8555 14.5123 42.952C14.9972 43.0484 15.4999 42.9989 15.9567 42.8097C16.4135 42.6205 16.804 42.3001 17.0787 41.8889C17.3534 41.4778 17.5 40.9945 17.5 40.5C17.5 39.837 17.2366 39.2011 16.7678 38.7322C16.2989 38.2634 15.663 38 15 38Z" fill="#495771"/>
<path d="M21 25C19.1211 25 17.2844 24.4428 15.7221 23.399C14.1598 22.3551 12.9422 20.8714 12.2231 19.1355C11.5041 17.3996 11.316 15.4895 11.6825 13.6466C12.0491 11.8038 12.9539 10.1111 14.2825 8.78249C15.6111 7.45389 17.3038 6.5491 19.1466 6.18254C20.9895 5.81598 22.8996 6.00412 24.6355 6.72315C26.3714 7.44218 27.8551 8.65982 28.899 10.2221C29.9428 11.7844 30.5 13.6211 30.5 15.5C30.5 18.0196 29.4991 20.4359 27.7175 22.2175C25.9359 23.9991 23.5196 25 21 25ZM21 7C19.3189 7 17.6755 7.49852 16.2777 8.43251C14.8798 9.3665 13.7904 10.694 13.147 12.2472C12.5037 13.8004 12.3354 15.5094 12.6633 17.1583C12.9913 18.8071 13.8009 20.3217 14.9896 21.5104C16.1783 22.6992 17.6929 23.5087 19.3417 23.8367C20.9906 24.1647 22.6996 23.9963 24.2528 23.353C25.806 22.7096 27.1335 21.6202 28.0675 20.2224C29.0015 18.8245 29.5 17.1811 29.5 15.5C29.5 13.2457 28.6045 11.0837 27.0104 9.4896C25.4164 7.89554 23.2543 7 21 7Z" fill="#495771"/>
<path d="M10.5 28.5H2.5V29.5H10.5V28.5Z" fill="#495771"/>
<path d="M38.5 40H35V41H38.5V40Z" fill="#495771"/>
<path d="M49 41H44.5V40H48.5V32.645L43.23 24.5H35V23.5H43.5C43.5837 23.5001 43.6659 23.5213 43.7393 23.5615C43.8127 23.6016 43.8748 23.6596 43.92 23.73L49.42 32.23C49.472 32.3105 49.4998 32.4042 49.5 32.5V40.5C49.5 40.6326 49.4473 40.7598 49.3536 40.8536C49.2598 40.9473 49.1326 41 49 41Z" fill="#495771"/>
<path d="M35 41H18.125V40H34.5V16H30V15H35C35.1326 15 35.2598 15.0527 35.3536 15.1464C35.4473 15.2402 35.5 15.3674 35.5 15.5V40.5C35.5 40.6326 35.4473 40.7598 35.3536 40.8536C35.2598 40.9473 35.1326 41 35 41Z" fill="#495771"/>
<path d="M41.5 44C40.8078 44 40.1311 43.7947 39.5555 43.4101C38.9799 43.0256 38.5313 42.4789 38.2664 41.8394C38.0015 41.1999 37.9322 40.4961 38.0673 39.8172C38.2023 39.1383 38.5356 38.5146 39.0251 38.0251C39.5146 37.5356 40.1383 37.2023 40.8172 37.0673C41.4961 36.9322 42.1999 37.0015 42.8394 37.2664C43.4789 37.5313 44.0256 37.9799 44.4101 38.5555C44.7947 39.1311 45 39.8078 45 40.5C45 41.4283 44.6312 42.3185 43.9749 42.9749C43.3185 43.6312 42.4283 44 41.5 44ZM41.5 38C41.0055 38 40.5222 38.1466 40.1111 38.4213C39.6999 38.696 39.3795 39.0865 39.1903 39.5433C39.0011 40.0001 38.9516 40.5028 39.048 40.9877C39.1445 41.4727 39.3826 41.9181 39.7322 42.2678C40.0819 42.6174 40.5273 42.8555 41.0123 42.952C41.4972 43.0484 41.9999 42.9989 42.4567 42.8097C42.9135 42.6205 43.304 42.3001 43.5787 41.8889C43.8534 41.4778 44 40.9945 44 40.5C44 39.837 43.7366 39.2011 43.2678 38.7322C42.7989 38.2634 42.163 38 41.5 38Z" fill="#495771"/>
<path d="M45.5 33H38.5C38.3674 33 38.2402 32.9473 38.1464 32.8536C38.0527 32.7598 38 32.6326 38 32.5V27.5C38 27.3674 38.0527 27.2402 38.1464 27.1464C38.2402 27.0527 38.3674 27 38.5 27H42.5C42.5868 27 42.672 27.0226 42.7474 27.0656C42.8228 27.1085 42.8857 27.1704 42.93 27.245L45.93 32.245C45.975 32.3209 45.9991 32.4074 45.9999 32.4956C46.0007 32.5839 45.9781 32.6708 45.9344 32.7474C45.8907 32.8241 45.8275 32.8879 45.7512 32.9323C45.6749 32.9766 45.5883 33 45.5 33ZM39 32H44.615L42.215 28H39V32Z" fill="#495771"/>
<path d="M24 16.26H21C20.8674 16.26 20.7402 16.2073 20.6464 16.1136C20.5527 16.0198 20.5 15.8926 20.5 15.76V11.26H21.5V15.26H24V16.26Z" fill="#495771"/>
<path d="M10.5 23.5H0.5V24.5H10.5V23.5Z" fill="#495771"/>
<path d="M10.5 18.5H2.5V19.5H10.5V18.5Z" fill="#495771"/>
</g>
<defs>
<clipPath id="clip0_1_485">
<rect width="50" height="50" fill="white"/>
</clipPath>
</defs>
</svg>
