<svg width="164" height="25" viewBox="0 0 164 25" fill="none" xmlns="http://www.w3.org/2000/svg">
<g clip-path="url(#clip0_437_1035)">
<g clip-path="url(#clip1_437_1035)">
<g clip-path="url(#clip2_437_1035)">
<mask id="mask0_437_1035" style="mask-type:luminance" maskUnits="userSpaceOnUse" x="0" y="0" width="164" height="25">
<path d="M164 0H0V25H164V0Z" fill="white"/>
</mask>
<g mask="url(#mask0_437_1035)">
<path d="M161 0H3C1.34315 0 0 1.34315 0 3V22C0 23.6569 1.34315 25 3 25H161C162.657 25 164 23.6569 164 22V3C164 1.34315 162.657 0 161 0Z" fill="#7CBE69"/>
<path fill-rule="evenodd" clip-rule="evenodd" d="M20.8144 7.18014C20.1226 6.48701 19.2994 5.93741 18.3925 5.56318C17.4857 5.18896 16.5133 4.99754 15.5316 5.00002C11.4151 5.00002 8.06406 8.33436 8.0624 12.4329C8.0624 13.7428 8.40599 15.0213 9.05907 16.149L8 20L11.9592 18.9658C13.0544 19.5592 14.2814 19.8703 15.5283 19.8708H15.5316C19.6472 19.8708 22.9983 16.5365 23 12.4379C23.0028 11.4613 22.8111 10.4938 22.436 9.59131C22.0608 8.68885 21.5097 7.86934 20.8144 7.18014ZM15.5316 18.6164H15.5291C14.4172 18.6165 13.3258 18.3188 12.3694 17.7545L12.1431 17.6203L9.79367 18.2339L10.4201 15.9544L10.2729 15.7209C9.65123 14.736 9.32215 13.5961 9.32362 12.4329C9.32529 9.02657 12.1098 6.25527 15.5341 6.25527C16.3496 6.25346 17.1574 6.41265 17.9107 6.72362C18.664 7.03459 19.3478 7.49117 19.9226 8.06692C20.5005 8.63993 20.9585 9.32125 21.2703 10.0715C21.582 10.8217 21.7412 11.626 21.7387 12.4379C21.7371 15.8443 18.9526 18.6164 15.5316 18.6164ZM18.9367 13.9887C18.7496 13.8952 17.8328 13.4464 17.6614 13.3843C17.4908 13.3222 17.3669 13.2916 17.2421 13.477C17.1173 13.6625 16.7595 14.0807 16.6506 14.2049C16.5416 14.3291 16.4326 14.344 16.2462 14.2512C16.0599 14.1585 15.4584 13.9623 14.7454 13.3297C14.1905 12.837 13.8161 12.2293 13.7071 12.043C13.5982 11.8567 13.6955 11.7565 13.7895 11.6637C13.8735 11.5809 13.9759 11.4468 14.069 11.3383C14.1622 11.2299 14.193 11.1529 14.2554 11.0287C14.3178 10.9045 14.287 10.796 14.2396 10.7033C14.193 10.6097 13.8195 9.69559 13.6639 9.32382C13.5133 8.96364 13.3594 9.01166 13.2446 9.0067C13.1257 9.00186 13.0067 8.99965 12.8877 9.00007C12.793 9.00247 12.6999 9.0243 12.6142 9.0642C12.5284 9.10409 12.4519 9.16119 12.3893 9.23191C12.218 9.41821 11.7363 9.86698 11.7363 10.7811C11.7363 11.6952 12.4051 12.5787 12.4983 12.7029C12.5915 12.8271 13.8145 14.7025 15.6863 15.5073C16.1323 15.6986 16.48 15.8128 16.7504 15.8989C17.1972 16.0405 17.604 16.0198 17.9259 15.9726C18.2845 15.9196 19.0299 15.5239 19.1855 15.09C19.3411 14.6561 19.3411 14.2843 19.2945 14.2065C19.2479 14.1287 19.1223 14.0815 18.9367 13.9887Z" fill="white"/>
<path d="M30.0568 17V8.27274H31.1136V12.1591H35.767V8.27274H36.8239V17H35.767V13.0966H31.1136V17H30.0568ZM40.7294 17.1534C40.3146 17.1534 39.9382 17.0753 39.6001 16.919C39.2621 16.7599 38.9936 16.5312 38.7947 16.233C38.5959 15.9318 38.4964 15.5682 38.4964 15.142C38.4964 14.767 38.5703 14.4631 38.718 14.2301C38.8658 13.9943 39.0632 13.8097 39.3104 13.6761C39.5575 13.5426 39.8303 13.4432 40.1286 13.3778C40.4297 13.3097 40.7322 13.2557 41.0362 13.2159C41.4339 13.1648 41.7564 13.1264 42.0036 13.1009C42.2536 13.0724 42.4354 13.0256 42.549 12.9602C42.6655 12.8949 42.7237 12.7812 42.7237 12.6193V12.5852C42.7237 12.1648 42.6087 11.8381 42.3786 11.6051C42.1513 11.3722 41.8061 11.2557 41.343 11.2557C40.8629 11.2557 40.4865 11.3608 40.2138 11.571C39.9411 11.7812 39.7493 12.0057 39.6385 12.2443L38.6839 11.9034C38.8544 11.5057 39.0817 11.196 39.3658 10.9744C39.6527 10.75 39.9652 10.5937 40.3033 10.5057C40.6442 10.4148 40.9794 10.3693 41.3089 10.3693C41.5192 10.3693 41.7607 10.3949 42.0334 10.446C42.3089 10.4943 42.5746 10.5952 42.8303 10.7486C43.0888 10.902 43.3033 11.1335 43.4737 11.4432C43.6442 11.7528 43.7294 12.1676 43.7294 12.6875V17H42.7237V16.1136H42.6726C42.6044 16.2557 42.4908 16.4077 42.3317 16.5696C42.1726 16.7315 41.9609 16.8693 41.6967 16.983C41.4325 17.0966 41.1101 17.1534 40.7294 17.1534ZM40.8828 16.25C41.2805 16.25 41.6158 16.1719 41.8885 16.0156C42.1641 15.8594 42.3714 15.6577 42.5107 15.4105C42.6527 15.1634 42.7237 14.9034 42.7237 14.6307V13.7102C42.6811 13.7614 42.5874 13.8082 42.4425 13.8509C42.3004 13.8906 42.1357 13.9261 41.9482 13.9574C41.7635 13.9858 41.5831 14.0114 41.407 14.0341C41.2337 14.054 41.093 14.071 40.9851 14.0852C40.7237 14.1193 40.4794 14.1747 40.2521 14.2514C40.0277 14.3253 39.8459 14.4375 39.7067 14.5881C39.5703 14.7358 39.5021 14.9375 39.5021 15.1932C39.5021 15.5426 39.6314 15.8068 39.8899 15.9858C40.1513 16.1619 40.4822 16.25 40.8828 16.25ZM45.565 17V10.4545H50.7127V17H49.707V11.392H46.5707V17H45.565ZM53.555 15.517L56.7085 10.4545H57.8675V17H56.8619V11.9375L53.7255 17H52.5494V10.4545H53.555V15.517ZM62.3686 17.1364C61.755 17.1364 61.2266 16.9915 60.7834 16.7017C60.3402 16.4119 59.9993 16.0128 59.7607 15.5043C59.522 14.9957 59.4027 14.4148 59.4027 13.7614C59.4027 13.0966 59.5249 12.5099 59.7692 12.0014C60.0163 11.4901 60.3601 11.0909 60.8004 10.804C61.2436 10.5142 61.7607 10.3693 62.3516 10.3693C62.8118 10.3693 63.2266 10.4545 63.5959 10.625C63.9652 10.7955 64.2678 11.0341 64.5036 11.3409C64.7393 11.6477 64.8857 12.0057 64.9425 12.4148H63.9368C63.8601 12.1165 63.6896 11.8523 63.4254 11.6222C63.1641 11.3892 62.8118 11.2727 62.3686 11.2727C61.9766 11.2727 61.6328 11.375 61.3374 11.5795C61.0447 11.7812 60.8161 12.0668 60.6513 12.4361C60.4893 12.8026 60.4084 13.233 60.4084 13.7273C60.4084 14.233 60.4879 14.6733 60.647 15.0483C60.8089 15.4233 61.0362 15.7145 61.3288 15.9219C61.6243 16.1293 61.9709 16.233 62.3686 16.233C62.63 16.233 62.8672 16.1875 63.0803 16.0966C63.2933 16.0057 63.4737 15.875 63.6214 15.7045C63.7692 15.5341 63.8743 15.3295 63.9368 15.0909H64.9425C64.8857 15.4773 64.745 15.8253 64.5206 16.1349C64.299 16.4418 64.005 16.6861 63.6385 16.8679C63.2749 17.0469 62.8516 17.1364 62.3686 17.1364ZM68.3388 17.1534C67.924 17.1534 67.5476 17.0753 67.2095 16.919C66.8714 16.7599 66.603 16.5312 66.4041 16.233C66.2053 15.9318 66.1058 15.5682 66.1058 15.142C66.1058 14.767 66.1797 14.4631 66.3274 14.2301C66.4751 13.9943 66.6726 13.8097 66.9197 13.6761C67.1669 13.5426 67.4396 13.4432 67.7379 13.3778C68.0391 13.3097 68.3416 13.2557 68.6456 13.2159C69.0433 13.1648 69.3658 13.1264 69.6129 13.1009C69.8629 13.0724 70.0447 13.0256 70.1584 12.9602C70.2749 12.8949 70.3331 12.7812 70.3331 12.6193V12.5852C70.3331 12.1648 70.218 11.8381 69.9879 11.6051C69.7607 11.3722 69.4155 11.2557 68.9524 11.2557C68.4723 11.2557 68.0959 11.3608 67.8232 11.571C67.5504 11.7812 67.3587 12.0057 67.2479 12.2443L66.2933 11.9034C66.4638 11.5057 66.6911 11.196 66.9751 10.9744C67.2621 10.75 67.5746 10.5937 67.9126 10.5057C68.2536 10.4148 68.5888 10.3693 68.9183 10.3693C69.1286 10.3693 69.37 10.3949 69.6428 10.446C69.9183 10.4943 70.1839 10.5952 70.4396 10.7486C70.6982 10.902 70.9126 11.1335 71.0831 11.4432C71.2536 11.7528 71.3388 12.1676 71.3388 12.6875V17H70.3331V16.1136H70.282C70.2138 16.2557 70.1001 16.4077 69.9411 16.5696C69.782 16.7315 69.5703 16.8693 69.3061 16.983C69.0419 17.0966 68.7195 17.1534 68.3388 17.1534ZM68.4922 16.25C68.8899 16.25 69.2251 16.1719 69.4979 16.0156C69.7734 15.8594 69.9808 15.6577 70.12 15.4105C70.2621 15.1634 70.3331 14.9034 70.3331 14.6307V13.7102C70.2905 13.7614 70.1967 13.8082 70.0518 13.8509C69.9098 13.8906 69.745 13.9261 69.5575 13.9574C69.3729 13.9858 69.1925 14.0114 69.0163 14.0341C68.843 14.054 68.7024 14.071 68.5945 14.0852C68.3331 14.1193 68.0888 14.1747 67.8615 14.2514C67.6371 14.3253 67.4553 14.4375 67.3161 14.5881C67.1797 14.7358 67.1115 14.9375 67.1115 15.1932C67.1115 15.5426 67.2408 15.8068 67.4993 15.9858C67.7607 16.1619 68.0916 16.25 68.4922 16.25ZM72.2837 11.392V10.4545H77.6019V11.392H75.4542V17H74.4485V11.392H72.2837ZM79.9382 12.8239H81.8132C82.5803 12.8239 83.1669 13.0185 83.5732 13.4077C83.9794 13.7969 84.1825 14.2898 84.1825 14.8864C84.1825 15.2784 84.0916 15.6349 83.9098 15.956C83.728 16.2741 83.4609 16.5284 83.1087 16.7188C82.7564 16.9062 82.3246 17 81.8132 17H79.0689V10.4545H80.0746V16.0625H81.8132C82.2109 16.0625 82.5376 15.9574 82.7933 15.7472C83.049 15.5369 83.1768 15.267 83.1768 14.9375C83.1768 14.5909 83.049 14.3082 82.7933 14.0895C82.5376 13.8707 82.2109 13.7614 81.8132 13.7614H79.9382V12.8239ZM89.0884 17V10.4545H91.7646C92.4691 10.4545 93.0288 10.6136 93.4435 10.9318C93.8583 11.25 94.0657 11.6705 94.0657 12.1932C94.0657 12.5909 93.9478 12.8991 93.712 13.1179C93.4762 13.3338 93.1737 13.4801 92.8043 13.5568C93.0458 13.5909 93.2802 13.6761 93.5075 13.8125C93.7376 13.9489 93.9279 14.1364 94.0785 14.375C94.229 14.6108 94.3043 14.9006 94.3043 15.2443C94.3043 15.5795 94.2191 15.8793 94.0487 16.1435C93.8782 16.4077 93.6339 16.6165 93.3157 16.7699C92.9975 16.9233 92.6168 17 92.1737 17H89.0884ZM90.043 16.0795H92.1737C92.5202 16.0795 92.7915 15.9972 92.9876 15.8324C93.1836 15.6676 93.2816 15.4432 93.2816 15.1591C93.2816 14.821 93.1836 14.5554 92.9876 14.3622C92.7915 14.1662 92.5202 14.0682 92.1737 14.0682H90.043V16.0795ZM90.043 13.1989H91.7646C92.0344 13.1989 92.266 13.1619 92.4592 13.0881C92.6523 13.0114 92.8001 12.9034 92.9023 12.7642C93.0075 12.6222 93.06 12.4545 93.06 12.2614C93.06 11.9858 92.945 11.7699 92.7148 11.6136C92.4847 11.4545 92.168 11.375 91.7646 11.375H90.043V13.1989ZM100.923 17L98.5369 8.27274H99.6108L101.435 15.3807H101.52L103.378 8.27274H104.571L106.429 15.3807H106.514L108.338 8.27274H109.412L107.026 17H105.935L104.009 10.0455H103.94L102.014 17H100.923ZM111.598 13.0625V17H110.592V8.27274H111.598V11.4773H111.683C111.837 11.1392 112.067 10.8707 112.374 10.6719C112.683 10.4702 113.095 10.3693 113.609 10.3693C114.055 10.3693 114.446 10.4588 114.781 10.6378C115.116 10.8139 115.376 11.0852 115.561 11.4517C115.749 11.8153 115.842 12.2784 115.842 12.8409V17H114.837V12.9091C114.837 12.3892 114.702 11.9872 114.432 11.7031C114.165 11.4162 113.794 11.2727 113.32 11.2727C112.99 11.2727 112.695 11.3423 112.433 11.4815C112.175 11.6207 111.97 11.8239 111.82 12.0909C111.672 12.358 111.598 12.6818 111.598 13.0625ZM119.608 17.1534C119.194 17.1534 118.817 17.0753 118.479 16.919C118.141 16.7599 117.873 16.5312 117.674 16.233C117.475 15.9318 117.375 15.5682 117.375 15.142C117.375 14.767 117.449 14.4631 117.597 14.2301C117.745 13.9943 117.942 13.8097 118.189 13.6761C118.436 13.5426 118.709 13.4432 119.007 13.3778C119.309 13.3097 119.611 13.2557 119.915 13.2159C120.313 13.1648 120.635 13.1264 120.882 13.1009C121.132 13.0724 121.314 13.0256 121.428 12.9602C121.544 12.8949 121.603 12.7812 121.603 12.6193V12.5852C121.603 12.1648 121.488 11.8381 121.257 11.6051C121.03 11.3722 120.685 11.2557 120.222 11.2557C119.742 11.2557 119.365 11.3608 119.093 11.571C118.82 11.7812 118.628 12.0057 118.517 12.2443L117.563 11.9034C117.733 11.5057 117.961 11.196 118.245 10.9744C118.532 10.75 118.844 10.5937 119.182 10.5057C119.523 10.4148 119.858 10.3693 120.188 10.3693C120.398 10.3693 120.64 10.3949 120.912 10.446C121.188 10.4943 121.453 10.5952 121.709 10.7486C121.968 10.902 122.182 11.1335 122.353 11.4432C122.523 11.7528 122.608 12.1676 122.608 12.6875V17H121.603V16.1136H121.551C121.483 16.2557 121.37 16.4077 121.211 16.5696C121.051 16.7315 120.84 16.8693 120.576 16.983C120.311 17.0966 119.989 17.1534 119.608 17.1534ZM119.762 16.25C120.159 16.25 120.495 16.1719 120.767 16.0156C121.043 15.8594 121.25 15.6577 121.39 15.4105C121.532 15.1634 121.603 14.9034 121.603 14.6307V13.7102C121.56 13.7614 121.466 13.8082 121.321 13.8509C121.179 13.8906 121.015 13.9261 120.827 13.9574C120.642 13.9858 120.462 14.0114 120.286 14.0341C120.113 14.054 119.972 14.071 119.864 14.0852C119.603 14.1193 119.358 14.1747 119.131 14.2514C118.907 14.3253 118.725 14.4375 118.586 14.5881C118.449 14.7358 118.381 14.9375 118.381 15.1932C118.381 15.5426 118.51 15.8068 118.769 15.9858C119.03 16.1619 119.361 16.25 119.762 16.25ZM127.29 10.4545V11.3068H123.898V10.4545H127.29ZM124.887 8.88637H125.893V15.125C125.893 15.4091 125.934 15.6222 126.016 15.7642C126.102 15.9034 126.21 15.9972 126.34 16.0455C126.474 16.0909 126.614 16.1136 126.762 16.1136C126.873 16.1136 126.964 16.108 127.035 16.0966C127.106 16.0824 127.163 16.071 127.205 16.0625L127.41 16.9659C127.342 16.9915 127.246 17.017 127.124 17.0426C127.002 17.071 126.847 17.0852 126.66 17.0852C126.376 17.0852 126.097 17.0241 125.825 16.902C125.555 16.7798 125.33 16.5938 125.151 16.3438C124.975 16.0938 124.887 15.7784 124.887 15.3977V8.88637ZM133.322 11.9205L132.419 12.1761C132.362 12.0256 132.278 11.8793 132.168 11.7372C132.06 11.5923 131.912 11.473 131.724 11.3793C131.537 11.2855 131.297 11.2386 131.004 11.2386C130.604 11.2386 130.27 11.331 130.003 11.5156C129.739 11.6974 129.607 11.929 129.607 12.2102C129.607 12.4602 129.697 12.6577 129.879 12.8026C130.061 12.9474 130.345 13.0682 130.732 13.1648L131.703 13.4034C132.288 13.5455 132.724 13.7628 133.011 14.0554C133.298 14.3452 133.442 14.7187 133.442 15.1761C133.442 15.5511 133.334 15.8864 133.118 16.1818C132.905 16.4773 132.607 16.7102 132.223 16.8807C131.839 17.0511 131.393 17.1364 130.885 17.1364C130.217 17.1364 129.665 16.9915 129.227 16.7017C128.79 16.4119 128.513 15.9886 128.396 15.4318L129.351 15.1932C129.442 15.5455 129.614 15.8097 129.866 15.9858C130.122 16.1619 130.456 16.25 130.868 16.25C131.337 16.25 131.709 16.1506 131.984 15.9517C132.263 15.75 132.402 15.5085 132.402 15.2273C132.402 15 132.322 14.8097 132.163 14.6562C132.004 14.5 131.76 14.3835 131.43 14.3068L130.339 14.0511C129.74 13.9091 129.3 13.6889 129.018 13.3906C128.74 13.0895 128.601 12.7131 128.601 12.2614C128.601 11.892 128.705 11.5653 128.912 11.2812C129.122 10.9972 129.408 10.7741 129.768 10.6122C130.132 10.4503 130.544 10.3693 131.004 10.3693C131.652 10.3693 132.161 10.5114 132.53 10.7955C132.902 11.0795 133.166 11.4545 133.322 11.9205ZM136.882 17.1534C136.467 17.1534 136.091 17.0753 135.752 16.919C135.414 16.7599 135.146 16.5312 134.947 16.233C134.748 15.9318 134.649 15.5682 134.649 15.142C134.649 14.767 134.723 14.4631 134.87 14.2301C135.018 13.9943 135.216 13.8097 135.463 13.6761C135.71 13.5426 135.983 13.4432 136.281 13.3778C136.582 13.3097 136.885 13.2557 137.189 13.2159C137.586 13.1648 137.909 13.1264 138.156 13.1009C138.406 13.0724 138.588 13.0256 138.701 12.9602C138.818 12.8949 138.876 12.7812 138.876 12.6193V12.5852C138.876 12.1648 138.761 11.8381 138.531 11.6051C138.304 11.3722 137.958 11.2557 137.495 11.2557C137.015 11.2557 136.639 11.3608 136.366 11.571C136.093 11.7812 135.902 12.0057 135.791 12.2443L134.836 11.9034C135.007 11.5057 135.234 11.196 135.518 10.9744C135.805 10.75 136.118 10.5937 136.456 10.5057C136.797 10.4148 137.132 10.3693 137.461 10.3693C137.672 10.3693 137.913 10.3949 138.186 10.446C138.461 10.4943 138.727 10.5952 138.983 10.7486C139.241 10.902 139.456 11.1335 139.626 11.4432C139.797 11.7528 139.882 12.1676 139.882 12.6875V17H138.876V16.1136H138.825C138.757 16.2557 138.643 16.4077 138.484 16.5696C138.325 16.7315 138.113 16.8693 137.849 16.983C137.585 17.0966 137.262 17.1534 136.882 17.1534ZM137.035 16.25C137.433 16.25 137.768 16.1719 138.041 16.0156C138.316 15.8594 138.524 15.6577 138.663 15.4105C138.805 15.1634 138.876 14.9034 138.876 14.6307V13.7102C138.833 13.7614 138.74 13.8082 138.595 13.8509C138.453 13.8906 138.288 13.9261 138.1 13.9574C137.916 13.9858 137.735 14.0114 137.559 14.0341C137.386 14.054 137.245 14.071 137.137 14.0852C136.876 14.1193 136.632 14.1747 136.404 14.2514C136.18 14.3253 135.998 14.4375 135.859 14.5881C135.723 14.7358 135.654 14.9375 135.654 15.1932C135.654 15.5426 135.784 15.8068 136.042 15.9858C136.304 16.1619 136.635 16.25 137.035 16.25ZM141.717 19.4545V10.4545H142.689V11.4943H142.808C142.882 11.3807 142.984 11.2358 143.115 11.0597C143.249 10.8807 143.439 10.7216 143.686 10.5824C143.936 10.4403 144.274 10.3693 144.7 10.3693C145.251 10.3693 145.737 10.5071 146.158 10.7827C146.578 11.0582 146.906 11.4489 147.142 11.9545C147.378 12.4602 147.496 13.0568 147.496 13.7443C147.496 14.4375 147.378 15.0384 147.142 15.5469C146.906 16.0526 146.58 16.4446 146.162 16.723C145.744 16.9986 145.263 17.1364 144.717 17.1364C144.297 17.1364 143.96 17.0668 143.707 16.9276C143.455 16.7855 143.26 16.625 143.124 16.446C142.987 16.2642 142.882 16.1136 142.808 15.9943H142.723V19.4545H141.717ZM142.706 13.7273C142.706 14.2216 142.778 14.6577 142.923 15.0355C143.068 15.4105 143.28 15.7045 143.558 15.9176C143.837 16.1278 144.178 16.233 144.581 16.233C145.001 16.233 145.352 16.1222 145.634 15.9006C145.918 15.6761 146.131 15.375 146.273 14.9972C146.418 14.6165 146.49 14.1932 146.49 13.7273C146.49 13.267 146.419 12.8523 146.277 12.483C146.138 12.1108 145.926 11.8168 145.642 11.6009C145.361 11.3821 145.007 11.2727 144.581 11.2727C144.172 11.2727 143.828 11.3764 143.55 11.5838C143.271 11.7884 143.061 12.0753 142.919 12.4446C142.777 12.8111 142.706 13.2386 142.706 13.7273ZM149.03 19.4545V10.4545H150.001V11.4943H150.121C150.195 11.3807 150.297 11.2358 150.428 11.0597C150.561 10.8807 150.751 10.7216 150.999 10.5824C151.249 10.4403 151.587 10.3693 152.013 10.3693C152.564 10.3693 153.05 10.5071 153.47 10.7827C153.891 11.0582 154.219 11.4489 154.455 11.9545C154.69 12.4602 154.808 13.0568 154.808 13.7443C154.808 14.4375 154.69 15.0384 154.455 15.5469C154.219 16.0526 153.892 16.4446 153.474 16.723C153.057 16.9986 152.575 17.1364 152.03 17.1364C151.609 17.1364 151.273 17.0668 151.02 16.9276C150.767 16.7855 150.572 16.625 150.436 16.446C150.3 16.2642 150.195 16.1136 150.121 15.9943H150.036V19.4545H149.03ZM150.018 13.7273C150.018 14.2216 150.091 14.6577 150.236 15.0355C150.381 15.4105 150.592 15.7045 150.871 15.9176C151.149 16.1278 151.49 16.233 151.893 16.233C152.314 16.233 152.665 16.1222 152.946 15.9006C153.23 15.6761 153.443 15.375 153.585 14.9972C153.73 14.6165 153.803 14.1932 153.803 13.7273C153.803 13.267 153.732 12.8523 153.589 12.483C153.45 12.1108 153.239 11.8168 152.955 11.6009C152.673 11.3821 152.32 11.2727 151.893 11.2727C151.484 11.2727 151.141 11.3764 150.862 11.5838C150.584 11.7884 150.374 12.0753 150.232 12.4446C150.089 12.8111 150.018 13.2386 150.018 13.7273Z" fill="white"/>
</g>
</g>
</g>
</g>
<defs>
<clipPath id="clip0_437_1035">
<rect width="164" height="25" fill="white"/>
</clipPath>
<clipPath id="clip1_437_1035">
<rect width="164" height="25" fill="white"/>
</clipPath>
<clipPath id="clip2_437_1035">
<rect width="164" height="25" fill="white"/>
</clipPath>
</defs>
</svg>
