<svg width="164" height="25" viewBox="0 0 164 25" fill="none" xmlns="http://www.w3.org/2000/svg">
<g clip-path="url(#clip0_437_3197)">
<g clip-path="url(#clip1_437_3197)">
<g clip-path="url(#clip2_437_3197)">
<mask id="mask0_437_3197" style="mask-type:luminance" maskUnits="userSpaceOnUse" x="0" y="0" width="164" height="25">
<path d="M164 0H0V25H164V0Z" fill="white"/>
</mask>
<g mask="url(#mask0_437_3197)">
<path d="M161 0H3C1.34315 0 0 1.34315 0 3V22C0 23.6569 1.34315 25 3 25H161C162.657 25 164 23.6569 164 22V3C164 1.34315 162.657 0 161 0Z" fill="#5CB1E6"/>
</g>
</g>
<path d="M37.124 12.684H32.275V17H31.053V7.523H32.262V11.618H37.124V7.523H38.346V17H37.124V12.684ZM46.3368 16.337V17.182C45.9728 17.273 45.8168 17.299 45.5698 17.299C44.8548 17.299 44.5038 17 44.4258 16.337C43.6588 17.013 42.9958 17.299 42.1378 17.299C40.7728 17.299 39.9278 16.519 39.9278 15.245C39.9278 14.361 40.3308 13.75 41.1238 13.412C41.5398 13.23 41.7608 13.191 43.3078 12.996C44.1788 12.866 44.4128 12.71 44.4258 12.229V12.021C44.4258 11.358 43.8928 10.994 42.9048 10.994C41.9038 10.994 41.4098 11.384 41.3188 12.229H40.2268C40.2658 11.54 40.3828 11.15 40.6948 10.799C41.1628 10.279 41.9558 9.993 42.9568 9.993C44.6338 9.993 45.5178 10.643 45.5178 11.865V15.856C45.5178 16.194 45.7258 16.389 46.0768 16.389C46.1678 16.389 46.2328 16.376 46.3368 16.337ZM44.4258 14.868V13.646C44.0748 13.802 43.8538 13.854 42.6838 14.023C41.5268 14.192 41.0588 14.543 41.0588 15.258C41.0588 15.947 41.5528 16.35 42.3978 16.35C43.0218 16.35 43.5678 16.142 44.0098 15.739C44.3218 15.453 44.4258 15.219 44.4258 14.868ZM47.5285 17V10.188H52.7285V17H51.6365V11.15H48.6205V17H47.5285ZM54.7044 17V10.188H55.7964V14.751L58.7864 10.76V10.188H59.8784V17H58.7864V12.346L55.7964 16.376V17H54.7044ZM67.0491 12.476H65.9701C65.8401 11.527 65.2551 10.994 64.3451 10.994C63.1491 10.994 62.4341 12.008 62.4341 13.711C62.4341 15.323 63.1491 16.298 64.3191 16.298C65.2421 16.298 65.8011 15.752 65.9701 14.66H67.0491C66.9191 16.324 65.9051 17.299 64.2931 17.299C62.4601 17.299 61.3031 15.908 61.3031 13.711C61.3031 11.449 62.4991 9.993 64.3451 9.993C65.2941 9.993 66.1131 10.37 66.5811 11.007C66.8541 11.384 66.9841 11.813 67.0491 12.476ZM74.4189 16.337V17.182C74.0549 17.273 73.8989 17.299 73.6519 17.299C72.9369 17.299 72.5859 17 72.5079 16.337C71.7409 17.013 71.0779 17.299 70.2199 17.299C68.8549 17.299 68.0099 16.519 68.0099 15.245C68.0099 14.361 68.4129 13.75 69.2059 13.412C69.6219 13.23 69.8429 13.191 71.3899 12.996C72.2609 12.866 72.4949 12.71 72.5079 12.229V12.021C72.5079 11.358 71.9749 10.994 70.9869 10.994C69.9859 10.994 69.4919 11.384 69.4009 12.229H68.3089C68.3479 11.54 68.4649 11.15 68.7769 10.799C69.2449 10.279 70.0379 9.993 71.0389 9.993C72.7159 9.993 73.5999 10.643 73.5999 11.865V15.856C73.5999 16.194 73.8079 16.389 74.1589 16.389C74.2499 16.389 74.3149 16.376 74.4189 16.337ZM72.5079 14.868V13.646C72.1569 13.802 71.9359 13.854 70.7659 14.023C69.6089 14.192 69.1409 14.543 69.1409 15.258C69.1409 15.947 69.6349 16.35 70.4799 16.35C71.1039 16.35 71.6499 16.142 72.0919 15.739C72.4039 15.453 72.5079 15.219 72.5079 14.868ZM76.8392 17V11.15H74.8502V10.188H79.9072V11.15H77.9312V17H76.8392ZM81.2593 17V10.188H82.3513V12.918H84.5093C85.8483 12.918 86.7063 13.724 86.7063 14.998C86.7063 16.22 85.8483 17 84.5223 17H81.2593ZM82.3513 16.038H84.4833C85.1723 16.038 85.5753 15.648 85.5753 14.959C85.5753 14.27 85.1723 13.88 84.4833 13.88H82.3513V16.038ZM91.5138 17V10.188H95.0238C96.1808 10.188 97.0258 10.916 97.0258 11.93C97.0258 12.515 96.7918 12.944 96.2458 13.347C97.0258 13.763 97.3118 14.231 97.3118 15.024C97.3118 16.233 96.5448 17 95.3488 17H91.5138ZM92.6058 16.038H95.0238C95.7258 16.038 96.1808 15.622 96.1808 14.972C96.1808 14.309 95.7258 13.88 95.0238 13.88H92.6058V16.038ZM92.6058 12.918H95.0238C95.5308 12.918 95.8948 12.554 95.8948 12.021C95.8948 11.475 95.5698 11.15 95.0238 11.15H92.6058V12.918ZM105.886 8.589V17H104.677V8.589H101.557V7.523H108.993V8.589H105.886ZM114.694 13.958H109.676C109.689 14.634 109.78 15.024 110.04 15.414C110.404 15.986 110.989 16.298 111.678 16.298C112.549 16.298 113.16 15.83 113.459 14.933H114.551C114.278 16.415 113.199 17.299 111.639 17.299C109.715 17.299 108.545 15.934 108.545 13.685C108.545 11.436 109.767 9.993 111.665 9.993C112.939 9.993 113.979 10.669 114.421 11.787C114.616 12.294 114.694 12.918 114.694 13.958ZM109.702 13.074H113.524C113.524 11.852 112.757 10.994 111.652 10.994C110.56 10.994 109.793 11.813 109.702 13.074ZM117.174 7.523V17H116.082V7.523H117.174ZM124.749 13.958H119.731C119.744 14.634 119.835 15.024 120.095 15.414C120.459 15.986 121.044 16.298 121.733 16.298C122.604 16.298 123.215 15.83 123.514 14.933H124.606C124.333 16.415 123.254 17.299 121.694 17.299C119.77 17.299 118.6 15.934 118.6 13.685C118.6 11.436 119.822 9.993 121.72 9.993C122.994 9.993 124.034 10.669 124.476 11.787C124.671 12.294 124.749 12.918 124.749 13.958ZM119.757 13.074H123.579C123.579 11.852 122.812 10.994 121.707 10.994C120.615 10.994 119.848 11.813 119.757 13.074ZM130.568 10.188H131.569V15.882C131.569 17.481 131.374 18.326 130.854 18.963C130.412 19.509 129.58 19.834 128.579 19.834C127.097 19.834 126.096 19.041 125.992 17.78H127.097C127.201 18.56 127.682 18.924 128.605 18.924C129.957 18.924 130.464 18.248 130.464 16.428V16.077C129.892 16.935 129.307 17.299 128.488 17.299C127.786 17.299 127.136 16.974 126.629 16.376C126.044 15.687 125.771 14.855 125.771 13.711C125.771 11.527 126.915 9.993 128.566 9.993C129.424 9.993 130.022 10.357 130.568 11.176V10.188ZM128.67 10.994C127.552 10.994 126.902 11.982 126.902 13.646C126.902 15.323 127.552 16.298 128.67 16.298C129.801 16.298 130.464 15.336 130.464 13.685C130.464 11.956 129.814 10.994 128.67 10.994ZM133.348 10.188H134.349V11.423C134.973 10.409 135.506 9.993 136.208 9.993C136.338 9.993 136.442 10.006 136.624 10.032V11.137C135.129 11.098 134.453 11.826 134.44 13.464V17H133.348V10.188ZM143.684 16.363V17.182C143.32 17.273 143.177 17.299 142.943 17.299C142.241 17.299 141.903 17 141.825 16.298C141.058 17 140.369 17.299 139.511 17.299C138.133 17.299 137.275 16.519 137.275 15.284C137.275 14.4 137.678 13.802 138.471 13.464C138.887 13.295 139.121 13.243 140.655 13.048C141.539 12.931 141.773 12.762 141.786 12.294V12.008C141.786 11.358 141.253 10.994 140.265 10.994C139.251 10.994 138.757 11.371 138.666 12.203H137.574C137.6 11.527 137.73 11.137 138.042 10.786C138.51 10.279 139.303 9.993 140.304 9.993C141.981 9.993 142.865 10.643 142.865 11.852V15.856C142.865 16.194 143.073 16.389 143.45 16.389C143.515 16.389 143.567 16.389 143.684 16.363ZM141.786 14.855V13.633C141.422 13.802 141.201 13.854 140.044 14.01C138.874 14.179 138.406 14.543 138.406 15.258C138.406 15.947 138.9 16.35 139.745 16.35C140.382 16.35 140.915 16.142 141.357 15.739C141.682 15.44 141.786 15.219 141.786 14.855ZM144.863 10.188H145.864V11.15C146.436 10.331 147.047 9.993 147.957 9.993C148.841 9.993 149.387 10.305 149.79 11.033C150.427 10.266 150.973 9.993 151.883 9.993C153.157 9.993 153.859 10.669 153.859 11.891V17H152.767V12.307C152.767 11.449 152.299 10.942 151.506 10.942C150.622 10.942 149.907 11.735 149.907 12.723V17H148.815V12.307C148.815 11.436 148.36 10.942 147.554 10.942C146.67 10.942 145.955 11.735 145.955 12.723V17H144.863V10.188Z" fill="white"/>
<path d="M10.0312 11.464C14.0577 9.67284 16.7427 8.492 18.0861 7.92147C21.9219 6.2925 22.7189 6.00953 23.2384 6.00009C23.3527 5.99814 23.6082 6.02705 23.7737 6.16415C23.9134 6.27992 23.9518 6.4363 23.9702 6.54606C23.9886 6.65582 24.0115 6.90586 23.9933 7.10123C23.7855 9.33116 22.8861 14.7426 22.4285 17.2402C22.2349 18.297 21.8536 18.6513 21.4845 18.686C20.6824 18.7614 20.0734 18.1448 19.2965 17.6248C18.0809 16.8112 17.3941 16.3047 16.2141 15.5108C14.8504 14.5933 15.7344 14.089 16.5116 13.2648C16.715 13.0491 20.249 9.76704 20.3174 9.46931C20.326 9.43207 20.3339 9.29327 20.2532 9.21998C20.1724 9.14669 20.0532 9.17175 19.9672 9.19168C19.8453 9.21994 17.9033 10.5305 14.1411 13.1234C13.5899 13.5099 13.0906 13.6982 12.6433 13.6883C12.1501 13.6775 11.2015 13.4036 10.4962 13.1696C9.63124 12.8825 8.94377 12.7307 9.00363 12.2431C9.03481 11.9892 9.37733 11.7295 10.0312 11.464Z" fill="white"/>
</g>
</g>
<defs>
<clipPath id="clip0_437_3197">
<rect width="164" height="25" fill="white"/>
</clipPath>
<clipPath id="clip1_437_3197">
<rect width="164" height="25" fill="white"/>
</clipPath>
<clipPath id="clip2_437_3197">
<rect width="164" height="25" fill="white"/>
</clipPath>
</defs>
</svg>
