<svg width="199" height="138" viewBox="0 0 199 138" fill="none" xmlns="http://www.w3.org/2000/svg">
<path fill-rule="evenodd" clip-rule="evenodd" d="M191.138 137.182C195.787 125.697 198.347 113.143 198.347 99.9918C198.347 45.2198 153.946 0.818176 99.1736 0.818176C44.4016 0.818176 0 45.2198 0 99.9918C0 113.143 2.56 125.697 7.20889 137.182H191.138Z" fill="#7CBE69" fill-opacity="0.1"/>
<path fill-rule="evenodd" clip-rule="evenodd" d="M168.776 137.182C174.985 125.759 178.513 112.667 178.513 98.7518C178.513 54.2496 142.436 18.1733 97.9339 18.1733C53.4317 18.1733 17.3555 54.2496 17.3555 98.7518C17.3555 112.667 20.8829 125.759 27.0924 137.182H168.776Z" fill="#7CBE69" fill-opacity="0.2"/>
<path fill-rule="evenodd" clip-rule="evenodd" d="M148.765 137.182C156.546 126.823 161.157 113.946 161.157 99.9921C161.157 65.7596 133.406 38.0087 99.1736 38.0087C64.9411 38.0087 37.1899 65.7596 37.1899 99.9921C37.1899 113.946 41.8009 126.823 49.5822 137.182H148.765Z" fill="#7CBE69"/>
<path d="M38.3262 99.9921C38.3262 66.3871 65.5684 39.145 99.1734 39.145C132.778 39.145 160.02 66.3871 160.02 99.9921C160.02 113.488 155.628 125.955 148.194 136.046H50.153C42.7189 125.955 38.3262 113.488 38.3262 99.9921Z" stroke="white" stroke-width="2.27273"/>
<path d="M70.3516 71.7893H127.996" stroke="white" stroke-width="6.81818" stroke-linecap="round"/>
<path d="M80.5786 103.711H117.769" stroke="white" stroke-width="6.81818" stroke-linecap="round"/>
<path d="M75.3101 89.1443H123.037" stroke="white" stroke-width="6.81818" stroke-linecap="round"/>
<path d="M93.1926 116.48V126.025H92.2381V117.925L88.8972 123.516H88.7608L85.4199 117.925V126.025H84.4653V116.48H85.6517L88.829 121.798L92.0062 116.48H93.1926ZM98.3856 119.043C99.3947 119.043 100.208 119.403 100.826 120.121C101.454 120.83 101.767 121.671 101.767 122.643C101.767 122.743 101.758 122.884 101.74 123.066H95.7537C95.8447 123.757 96.1356 124.307 96.6265 124.716C97.1265 125.116 97.7401 125.316 98.4674 125.316C98.9856 125.316 99.431 125.212 99.8037 125.003C100.186 124.784 100.472 124.503 100.663 124.157L101.454 124.621C101.154 125.103 100.745 125.484 100.226 125.766C99.7083 126.048 99.1174 126.189 98.4537 126.189C97.381 126.189 96.5083 125.853 95.8356 125.18C95.1628 124.507 94.8265 123.653 94.8265 122.616C94.8265 121.598 95.1583 120.748 95.8219 120.066C96.4856 119.384 97.3401 119.043 98.3856 119.043ZM98.3856 119.916C97.6765 119.916 97.081 120.13 96.5992 120.557C96.1265 120.975 95.8447 121.521 95.7537 122.193H100.84C100.749 121.475 100.472 120.916 100.008 120.516C99.5447 120.116 99.0037 119.916 98.3856 119.916ZM106.39 119.043C107.217 119.043 107.867 119.298 108.34 119.807C108.822 120.307 109.063 120.984 109.063 121.839V126.025H108.163V121.839C108.163 121.23 107.999 120.757 107.672 120.421C107.354 120.084 106.899 119.916 106.308 119.916C105.654 119.916 105.122 120.125 104.713 120.543C104.304 120.953 104.099 121.589 104.099 122.453V126.025H103.199V119.207H104.099V120.271C104.608 119.453 105.372 119.043 106.39 119.043ZM115.603 119.207H116.503V126.025H115.603V124.962C115.094 125.78 114.33 126.189 113.312 126.189C112.485 126.189 111.83 125.939 111.348 125.439C110.876 124.93 110.639 124.248 110.639 123.393V119.207H111.539V123.393C111.539 124.003 111.698 124.475 112.016 124.812C112.344 125.148 112.803 125.316 113.394 125.316C114.048 125.316 114.58 125.112 114.989 124.703C115.398 124.284 115.603 123.643 115.603 122.78V119.207Z" fill="white"/>
</svg>
