<svg width="50" height="50" viewBox="0 0 50 50" fill="none" xmlns="http://www.w3.org/2000/svg">
<path d="M33.8594 22.4375V23.3906C33.8594 26.1719 36.0938 28.4062 38.875 28.4062H44.9844V33.7031C44.9844 36.7969 42.4688 39.3125 39.375 39.3125H6.34375V12.1406C6.34375 9.04688 8.85938 6.53125 11.9531 6.53125H39.375C42.4688 6.53125 44.9844 9.04688 44.9844 12.1406V17.4219H38.875C36.0938 17.4219 33.8594 19.6563 33.8594 22.4375Z" fill="#7CBE69"/>
<path d="M46.875 18.9063V26.9219C46.875 27.75 46.2187 28.4063 45.3906 28.4063H38.875C36.0937 28.4063 33.8594 26.1719 33.8594 23.3906V22.4375C33.8594 19.6563 36.0937 17.4219 38.875 17.4219H45.3906C46.2187 17.4219 46.875 18.0781 46.875 18.9063Z" fill="white"/>
<path d="M19.7969 29.3438C19.7969 30.4969 18.2344 31.5078 15.8812 32.0641C14.6016 32.3781 13.0828 32.5594 11.4562 32.5594C9.84062 32.5594 8.32187 32.3781 7.04219 32.0641C4.6875 31.5078 3.125 30.4969 3.125 29.3438C3.125 27.5641 6.85625 26.1172 11.4562 26.1172C16.0656 26.1188 19.7969 27.5641 19.7969 29.3438Z" fill="white"/>
<path d="M19.7969 29.3438V34.7937C19.7969 35.9469 18.2453 36.9484 15.9031 37.5141C14.6125 37.8375 13.0937 38.0203 11.4562 38.0203C9.82969 38.0203 8.3 37.8391 7.02031 37.5141C4.67656 36.9484 3.125 35.9484 3.125 34.7953V29.3438C3.125 30.4969 4.6875 31.5078 7.04063 32.0641C8.32031 32.3781 9.83906 32.5594 11.4547 32.5594C13.0812 32.5594 14.6 32.3781 15.8797 32.0641C18.2344 31.5078 19.7969 30.4969 19.7969 29.3438Z" fill="white"/>
<path d="M19.7969 34.7953V40.2453C19.7969 41.3984 18.2453 42.4 15.9031 42.975C14.6125 43.289 13.0937 43.4703 11.4562 43.4703C9.82969 43.4703 8.3 43.289 7.02031 42.975C4.67656 42.4 3.125 41.3984 3.125 40.2453V34.7953C3.125 35.9484 4.67656 36.95 7.01875 37.5156C8.29844 37.839 9.82812 38.0219 11.4547 38.0219C13.0922 38.0219 14.6109 37.8406 15.9016 37.5156C18.2453 36.9484 19.7969 35.9484 19.7969 34.7953Z" fill="white"/>
<path d="M46.3907 16.2V12.139C46.3907 8.27029 43.2423 5.12341 39.3751 5.12341H11.9532C8.08291 5.12341 4.93604 8.27185 4.93604 12.139V21.1703C4.93604 21.9468 5.56572 22.5765 6.34229 22.5765C7.11885 22.5765 7.74854 21.9468 7.74854 21.1703V12.139C7.74854 9.82185 9.63447 7.93748 11.9517 7.93748H39.3751C41.6923 7.93748 43.5767 9.82185 43.5767 12.139V16.0125H38.8657C35.3251 16.0125 32.4454 18.8937 32.4454 22.4328V23.3969C32.4454 26.9375 35.3267 29.8172 38.8657 29.8172H43.5767V33.7C43.5767 36.0172 41.6923 37.9015 39.3751 37.9015H25.2657C24.4892 37.9015 23.8595 38.5312 23.8595 39.3078C23.8595 40.0844 24.4892 40.714 25.2657 40.714H39.3751C43.2438 40.714 46.3907 37.5656 46.3907 33.6984V29.6265C47.4907 29.2172 48.2813 28.1656 48.2813 26.925V18.8984C48.2813 17.6609 47.4907 16.6094 46.3907 16.2ZM35.2595 23.3969V22.4328C35.2595 20.4437 36.8767 18.825 38.8673 18.825L45.4688 18.9015V26.9281C45.4688 26.9687 45.4345 27.0047 45.3923 27.0047H38.8673C36.8782 27.0031 35.2595 25.3859 35.2595 23.3969Z" fill="#495771"/>
<path d="M11.4547 24.7109C6.76563 24.7109 1.71875 26.1609 1.71875 29.3438V34.7938V36.3563V40.2438C1.71875 42.0984 3.48281 43.5516 6.68594 44.3406C8.11719 44.6906 9.76719 44.8766 11.4562 44.8766C13.1406 44.8766 14.7937 44.6922 16.2406 44.3406C19.4422 43.5531 21.2062 42.0969 21.2062 40.2438V36.3563V34.7938V29.3438C21.2031 26.1609 16.15 24.7109 11.4547 24.7109ZM18.3906 34.7766C18.325 34.9422 17.6625 35.6437 15.5609 36.1516C13.1422 36.7578 9.76719 36.7609 7.35 36.1484C5.22344 35.6344 4.575 34.9187 4.53125 34.7953V32.7062C5.1625 32.9922 5.88594 33.2375 6.70625 33.4313C8.14219 33.7828 9.78437 33.9688 11.4547 33.9688C13.1328 33.9688 14.7797 33.7828 16.2047 33.4344C17.0281 33.2391 17.7562 32.9922 18.3891 32.7047V34.7766H18.3906ZM11.4547 27.525C15.7734 27.525 18.1406 28.8125 18.3828 29.3422C18.2797 29.5391 17.5859 30.2156 15.5484 30.6984C13.1172 31.2922 9.83281 31.2984 7.36563 30.6953C5.25625 30.1969 4.59531 29.4859 4.53281 29.3781V29.3656C4.70625 28.8531 7.075 27.525 11.4547 27.525ZM18.3922 40.2188C18.3469 40.3688 17.6984 41.0859 15.5703 41.6094C13.1125 42.2047 9.78125 42.2031 7.35312 41.6109C5.22187 41.0859 4.57344 40.3688 4.52969 40.2453V38.1672C5.14844 38.4453 5.86406 38.6844 6.67188 38.8797C9.50469 39.5922 13.3937 39.5953 16.2297 38.8828C17.0437 38.6859 17.7656 38.4453 18.3906 38.1656L18.3922 40.2188Z" fill="#495771"/>
<path d="M22.0219 12.4421H13.9641C13.1875 12.4421 12.5579 13.0718 12.5579 13.8484C12.5579 14.625 13.1875 15.2546 13.9641 15.2546H22.0204C22.7969 15.2546 23.4266 14.625 23.4266 13.8484C23.4266 13.0718 22.7985 12.4421 22.0219 12.4421Z" fill="#495771"/>
</svg>
