<svg width="14" height="32" viewBox="0 0 14 32" fill="none" xmlns="http://www.w3.org/2000/svg">
<path d="M3.73746 14.5646C3.80358 14.5646 3.87037 14.5618 3.93548 14.556C3.99876 14.5504 4.05596 14.5153 4.09067 14.4605C4.12559 14.4057 4.1343 14.3374 4.11424 14.2752C4.07129 14.1414 4.03239 14.007 3.99376 13.8732C3.90448 13.5643 3.81216 13.2452 3.67304 12.9479C3.53749 12.6577 3.35623 12.3951 3.18077 12.1407C3.10614 12.0325 3.03138 11.9241 2.96047 11.8142C2.95527 11.806 2.94953 11.7983 2.94332 11.791L2.19705 10.9181C2.19313 10.9134 2.18874 10.9089 2.18442 10.9046C1.65285 10.383 1.0189 10.2122 0.230691 10.1163C0.222587 10.1153 0.21455 10.1149 0.206716 10.1149C0.155457 10.1149 0.105616 10.1346 0.0674584 10.1707C0.0232228 10.2125 -0.00136009 10.2722 5.81484e-05 10.3341C0.0492239 12.4296 1.93522 14.5646 3.73746 14.5646Z" fill="#2E3C53"/>
<path d="M4.83937 0.487339C4.83005 0.48601 4.82052 0.485381 4.81141 0.485381C4.76265 0.485381 4.7151 0.503147 4.67755 0.536372C3.8728 1.24459 3.3386 2.40859 3.2485 3.6498C3.17145 4.71077 3.4372 5.68786 3.97761 6.33068C4.01685 6.37734 4.07372 6.40406 4.13342 6.40406H4.13484C4.19521 6.40364 4.25221 6.37601 4.29105 6.3283C5.93047 4.32235 6.16319 2.38823 4.98234 0.57946C4.94972 0.529098 4.89765 0.495663 4.83937 0.487339Z" fill="#2E3C53"/>
<path d="M3.61096 10.9146C3.63021 10.9206 3.65007 10.9236 3.66986 10.9236C3.70457 10.9236 3.73928 10.9144 3.77028 10.8966C3.81884 10.8686 3.85463 10.8215 3.86929 10.766C4.47832 8.46042 3.55869 6.16677 1.72997 5.43071C1.70579 5.42106 1.6804 5.41616 1.65514 5.41616C1.62212 5.41616 1.58902 5.42428 1.55904 5.44078C1.50616 5.46946 1.46793 5.52066 1.45409 5.58075C0.911239 7.9442 1.89881 10.387 3.61096 10.9146Z" fill="#2E3C53"/>
<path d="M3.82073 18.6653C3.88726 18.6653 3.95425 18.6623 4.01956 18.6565C4.07946 18.6511 4.13403 18.619 4.16935 18.5685C4.20454 18.518 4.21669 18.4542 4.20285 18.3936C3.99227 17.4797 3.77089 16.6655 3.20657 15.982C2.48097 14.6646 1.23028 14.3555 0.352184 14.2376C0.34327 14.2363 0.334423 14.2359 0.325711 14.2359C0.275059 14.2359 0.225691 14.2552 0.187466 14.2907C0.142622 14.3325 0.117634 14.3924 0.119052 14.4549C0.165382 16.5405 2.03375 18.6653 3.82073 18.6653Z" fill="#2E3C53"/>
<path d="M13.6926 30.185C13.6866 30.1224 13.6542 30.0657 13.6044 30.03C12.753 29.4223 11.7339 29.0878 10.7351 29.0878C9.57515 29.0878 8.57475 29.5394 7.9901 30.3266C7.95626 30.3724 7.94154 30.4302 7.94937 30.4874C7.95721 30.5445 7.98699 30.5959 8.03204 30.6299C8.80761 31.2168 9.77539 31.54 10.7574 31.54C11.8856 31.54 12.9348 31.1081 13.636 30.3547C13.6779 30.3096 13.6988 30.2475 13.6926 30.185Z" fill="#2E3C53"/>
<path d="M10.4326 27.9545C10.433 27.8899 10.4051 27.8282 10.3567 27.7873C9.41165 26.9878 8.29056 26.5476 7.2002 26.5476C6.23782 26.5476 5.3862 26.8825 4.73726 27.5161C4.69471 27.5577 4.67114 27.6161 4.67235 27.6767C4.67357 27.7372 4.69964 27.7944 4.74408 27.834C5.61083 28.6079 6.69247 29.0341 7.79006 29.0341C8.74217 29.0341 9.62911 28.7181 10.3547 28.1203C10.4036 28.0803 10.4322 28.0193 10.4326 27.9545Z" fill="#2E3C53"/>
<path d="M5.87928 22.6577C5.93567 22.6418 5.98329 22.602 6.00969 22.5481C6.03617 22.4941 6.03941 22.431 6.01854 22.3743C5.64784 21.3729 5.06129 20.6622 4.22581 20.202L3.78211 19.8998C3.33387 19.5535 2.82256 19.3921 2.17389 19.3921C1.8404 19.3921 1.49982 19.4337 1.15093 19.4801C1.08913 19.4882 1.03436 19.5249 1.00154 19.5796C0.968719 19.6344 0.961695 19.7016 0.981888 19.7624C1.55682 21.4788 3.29275 22.7731 5.01976 22.7731C5.3159 22.7729 5.60502 22.7341 5.87928 22.6577Z" fill="#2E3C53"/>
<path d="M5.2616 6.52257C5.15577 6.7236 5.12605 6.94743 5.09728 7.16406C5.08506 7.25548 5.07371 7.34194 5.05676 7.42371C5.04521 7.48002 5.05615 7.53863 5.08675 7.58641C5.11734 7.63432 5.16549 7.66726 5.21986 7.67818C5.30354 7.69489 5.39052 7.72056 5.48298 7.74777C5.65654 7.79891 5.83592 7.85179 6.01907 7.85179C6.07216 7.85179 6.12362 7.84731 6.17245 7.83808C7.40355 7.60991 8.42441 6.93589 9.20641 5.83443C9.31777 5.67754 9.38497 5.49477 9.4498 5.31794C9.47918 5.23813 9.5095 5.15524 9.54408 5.0748C9.56725 5.02045 9.56765 4.95855 9.5451 4.90399C9.52254 4.84943 9.47898 4.80704 9.42502 4.7869C9.12266 4.67456 8.79451 4.61741 8.4496 4.61741C7.16326 4.61741 5.85219 5.40076 5.2616 6.52257Z" fill="#2E3C53"/>
<path d="M7.15022 23.1497C7.17791 23.1497 7.2058 23.1439 7.23247 23.1319C8.33978 22.6332 8.6551 21.6077 8.79585 20.88C8.94692 20.0994 8.91923 19.2878 8.8723 18.5968C8.84582 18.2075 8.63255 17.9457 8.3414 17.9457C8.21221 17.9457 8.01406 18 7.80429 18.2586C7.74729 18.3288 7.68901 18.3993 7.63053 18.4701C7.29265 18.8781 6.94315 19.2999 6.75804 19.7982C6.42408 20.6963 6.14799 21.879 6.98347 23.0618C7.02332 23.1186 7.08592 23.1497 7.15022 23.1497Z" fill="#2E3C53"/>
<path d="M4.9483 19.1171C4.95863 19.1732 4.99004 19.2226 5.03589 19.2543C5.0702 19.2783 5.11052 19.2909 5.15138 19.2909C5.16482 19.2909 5.17826 19.2896 5.1917 19.2868C5.26977 19.2707 5.35412 19.2609 5.4432 19.2504C5.65938 19.2251 5.88279 19.199 6.0756 19.078C7.23167 18.3525 7.95578 17.2551 8.22815 15.8161C8.25807 15.6577 8.23619 15.5013 8.2087 15.303C8.19385 15.1969 8.1771 15.0764 8.16386 14.9296C8.15724 14.857 8.11571 14.793 8.0533 14.7596C8.02359 14.7436 7.9909 14.7356 7.95821 14.7356C7.92269 14.7356 7.8871 14.7451 7.85549 14.7639L6.45035 15.598C6.43138 15.6029 6.41294 15.6107 6.39538 15.6212C5.54619 16.1368 5.02401 16.96 4.79918 18.138C4.75306 18.3792 4.81883 18.6176 4.88245 18.8484C4.90798 18.9429 4.93256 19.0319 4.9483 19.1171Z" fill="#2E3C53"/>
<path d="M9.83387 26.1413C10.1206 26.1413 10.3166 25.8768 10.4555 25.6462C10.9883 24.7618 11.1363 23.7374 10.9209 22.4223C10.8632 22.0696 10.7297 21.741 10.5886 21.3933C10.5244 21.2353 10.458 21.0719 10.3975 20.902C10.3751 20.8397 10.3261 20.7916 10.265 20.7719C10.245 20.7655 10.2243 20.7623 10.2036 20.7623C10.1614 20.7623 10.1198 20.7755 10.0846 20.8015C9.38605 21.3116 8.88284 22.2456 8.73838 23.3002C8.60757 24.2552 8.79518 25.1694 9.24037 25.7454C9.38314 25.9296 9.57947 26.1413 9.83387 26.1413Z" fill="#2E3C53"/>
<path d="M12.3022 23.2173C12.264 23.1843 12.2169 23.1674 12.1698 23.1674C12.1293 23.1674 12.0886 23.1796 12.0534 23.2046C11.4832 23.6075 11.1418 24.3718 11.0919 25.3572C11.0328 26.5222 11.4072 27.7011 12.0024 28.2244C12.1785 28.3792 12.3314 28.4513 12.4835 28.4513C12.7805 28.4513 12.9502 28.1697 13.006 28.0769C13.4872 27.2775 13.4518 26.3931 13.3831 25.7972C13.2812 24.9133 13.1053 23.9123 12.3022 23.2173Z" fill="#2E3C53"/>
<path d="M6.59657 3.89866C6.74974 3.92755 6.90777 3.94238 7.06607 3.94238C8.95801 3.94238 10.7994 1.87732 10.9238 0.249363C10.9326 0.1336 10.8508 0.0316862 10.7395 0.0194454C10.6206 0.00657505 10.5 0 10.3807 0C8.56023 0 6.89974 1.5308 6.43205 3.64021C6.41943 3.69714 6.42976 3.75709 6.46076 3.80591C6.49223 3.8546 6.54119 3.88817 6.59657 3.89866Z" fill="#2E3C53"/>
<path d="M5.02888 15.2864C5.06238 15.2886 5.09608 15.2894 5.12998 15.2894C6.10269 15.2894 7.15462 14.4587 7.76588 13.6354C8.3404 12.8616 8.57948 12.066 8.42199 11.453C8.39929 11.3644 8.32467 11.3008 8.2364 11.2944C8.16225 11.289 8.08823 11.2865 8.0163 11.2865C7.32258 11.2865 6.73131 11.536 6.25809 12.0281C5.14997 12.6953 4.49157 14.145 4.84701 15.1465C4.87551 15.2266 4.94682 15.2813 5.02888 15.2864Z" fill="#2E3C53"/>
<path d="M5.15787 11.5517H5.16962C6.59617 11.5517 8.45609 9.91111 8.72333 8.41717C8.73967 8.32554 8.69706 8.2337 8.61791 8.18963C8.3995 8.06806 8.14199 8.00637 7.85287 8.00637C6.54288 8.00637 4.65399 9.3623 4.44321 10.8026C4.4089 11.0363 4.44463 11.2133 4.55235 11.3439C4.70113 11.5245 4.94189 11.5502 5.15787 11.5517Z" fill="#2E3C53"/>
<path d="M8.27632 25.4809C8.329 25.4469 8.36412 25.3899 8.37202 25.3261C8.37985 25.2624 8.35939 25.1982 8.31664 25.1517C7.32178 24.0701 6.04218 23.4499 4.80615 23.4499C4.05124 23.4499 3.35043 23.6845 2.77969 24.1281C2.73356 24.1639 2.70425 24.2181 2.69824 24.2773C2.6923 24.3366 2.71046 24.3957 2.74849 24.4406C3.61875 25.4682 4.90786 26.0817 6.19677 26.0817C6.94878 26.0813 7.6679 25.8737 8.27632 25.4809Z" fill="#2E3C53"/>
</svg>
