<svg width="66" height="62" viewBox="0 0 66 62" fill="none" xmlns="http://www.w3.org/2000/svg">
    <path
        d="M35.5513 11.2321L32.3175 5.70805C32.2125 5.52881 32.0552 5.38607 31.8666 5.29907C31.678 5.21206 31.4672 5.18499 31.2628 5.2215L11.5859 8.73689C11.3413 8.78057 11.1212 8.91242 10.9673 9.10748C10.8135 9.30253 10.7364 9.54725 10.7509 9.79528L11.2685 18.6994"
        stroke="#7CBE69" stroke-width="2" stroke-miterlimit="10" stroke-linecap="round"
        stroke-linejoin="round"></path>
    <path
        d="M16.4555 3.86789L31.305 1.06392C32.0449 0.924203 32.8098 1.01478 33.4965 1.32342C34.1833 1.63207 34.7589 2.14393 35.1456 2.78996L41.235 12.9619M7.72635 23.3304L6.79601 8.98178C6.67571 7.12617 7.95846 5.47235 9.78564 5.12729L12.3787 4.63769M56.8995 31.7008L62.0961 35.5498L64.0713 42.3074H57.2173M53.1814 42.9653L51.3669 45.0829L51.4654 47.8699L49.223 49.5278L48.6976 52.2665L46.1432 53.3852L45.0245 55.9397L42.2858 56.4651L40.6279 58.7073L37.841 58.6089L35.7234 60.4232L33.0292 59.703L30.5605 61L28.0918 59.703L25.3976 60.4232L23.28 58.6089L20.493 58.7073L18.835 56.4649L16.0962 55.9395L14.9776 53.3851L12.4231 52.2663L11.8978 49.5277L9.65544 47.8698L9.75392 45.0828L7.93955 42.9652"
        stroke="#7CBE69" stroke-width="2" stroke-miterlimit="10" stroke-linecap="round"
        stroke-linejoin="round"></path>
    <path
        d="M53.5517 23.5806C56.1125 27.7118 57.5911 32.5844 57.5911 37.8022C57.5911 39.3373 57.4632 40.8425 57.2174 42.3076L45.4672 42.3075M15.6538 42.3075L3.90371 42.3074C3.65439 40.8186 3.52938 39.3117 3.52997 37.8022C3.52997 22.8736 15.632 10.7717 30.5605 10.7717C38.7773 10.7717 46.1379 14.4381 51.0955 20.2241"
        stroke="#7CBE69" stroke-width="2" stroke-miterlimit="10" stroke-linecap="round"
        stroke-linejoin="round"></path>
    <path d="M9.27435 36.5967C9.90164 25.3998 19.2094 16.4825 30.5604 16.4825" stroke="#7CBE69"
        stroke-width="2" stroke-miterlimit="10" stroke-linecap="round" stroke-linejoin="round"></path>
    <path
        d="M30.5605 53.0069C38.9578 53.0069 45.7652 46.1995 45.7652 37.8022C45.7652 29.4048 38.9578 22.5974 30.5605 22.5974C22.1631 22.5974 15.3557 29.4048 15.3557 37.8022C15.3557 46.1995 22.1631 53.0069 30.5605 53.0069Z"
        stroke="#7CBE69" stroke-width="2" stroke-miterlimit="10" stroke-linecap="round"
        stroke-linejoin="round"></path>
    <path
        d="M19.4883 35.7281C20.4618 30.4986 25.0488 26.5396 30.5604 26.5396C36.7806 26.5396 41.8231 31.582 41.8231 37.8022C41.8231 44.0225 36.7806 49.0649 30.5604 49.0649C25.0486 49.0649 20.4616 45.1057 19.4882 39.8762"
        stroke="#7CBE69" stroke-width="2" stroke-miterlimit="10" stroke-linecap="round"
        stroke-linejoin="round"></path>
    <path
        d="M30.5605 41.3777C32.5351 41.3777 34.1359 39.777 34.1359 37.8023C34.1359 35.8277 32.5351 34.2269 30.5605 34.2269C28.5858 34.2269 26.9851 35.8277 26.9851 37.8023C26.9851 39.777 28.5858 41.3777 30.5605 41.3777Z"
        stroke="#7CBE69" stroke-width="2" stroke-miterlimit="10" stroke-linecap="round"
        stroke-linejoin="round"></path>
    <path d="M3.94673 42.392V49.065M1 49.065H60.1293M57.2173 42.3077V49.065" stroke="#7CBE69"
        stroke-width="2" stroke-miterlimit="10" stroke-linecap="round" stroke-linejoin="round"></path>
</svg>