<svg width="60" height="56" viewBox="0 0 60 56" fill="none" xmlns="http://www.w3.org/2000/svg">
    <path
        d="M51.125 38.8125V50.791C51.125 53.3531 49.0405 55.4375 46.4784 55.4375H4.6465C2.08438 55.4375 0 53.3531 0 50.791V5.209C0 2.64688 2.08438 0.5625 4.6465 0.5625H11.1875C11.4527 0.5625 11.7071 0.667857 11.8946 0.855393C12.0821 1.04293 12.1875 1.29728 12.1875 1.5625C12.1875 1.82772 12.0821 2.08207 11.8946 2.26961C11.7071 2.45714 11.4527 2.5625 11.1875 2.5625H4.6465C3.18725 2.5625 2 3.74975 2 5.209V50.7909C2 52.2501 3.18725 53.4374 4.6465 53.4374H46.4784C47.9377 53.4374 49.125 52.2501 49.125 50.7909V38.8125C49.125 38.5473 49.2304 38.2929 49.4179 38.1054C49.6054 37.9179 49.8598 37.8125 50.125 37.8125C50.3902 37.8125 50.6446 37.9179 50.8321 38.1054C51.0196 38.2929 51.125 38.5473 51.125 38.8125ZM11.875 40.6875H20.375C20.9264 40.6875 21.375 41.1361 21.375 41.6875C21.375 41.9527 21.4804 42.2071 21.6679 42.3946C21.8554 42.5821 22.1098 42.6875 22.375 42.6875C24.3026 42.6875 23.335 38.6875 20.375 38.6875H11.875C10.2209 38.6875 8.875 40.0334 8.875 41.6875V45.8125C8.875 47.4666 10.2209 48.8125 11.875 48.8125H20.375C20.6402 48.8125 20.8946 48.7071 21.0821 48.5196C21.2696 48.3321 21.375 48.0777 21.375 47.8125C21.375 47.5473 21.2696 47.2929 21.0821 47.1054C20.8946 46.9179 20.6402 46.8125 20.375 46.8125H11.875C11.3236 46.8125 10.875 46.3639 10.875 45.8125V41.6875C10.875 41.1361 11.3236 40.6875 11.875 40.6875ZM38.875 47.1875C39.1402 47.1875 39.3946 47.0821 39.5821 46.8946C39.7696 46.7071 39.875 46.4527 39.875 46.1875V43.7268L40.0429 43.8946C40.1355 43.9884 40.2458 44.063 40.3674 44.114C40.4889 44.165 40.6194 44.1915 40.7512 44.1919C40.883 44.1923 41.0137 44.1666 41.1355 44.1163C41.2574 44.0661 41.3681 43.9922 41.4614 43.899C41.5546 43.8058 41.6285 43.6951 41.6787 43.5732C41.729 43.4513 41.7547 43.3207 41.7543 43.1889C41.7539 43.057 41.7274 42.9266 41.6764 42.805C41.6254 42.6834 41.5509 42.5732 41.4571 42.4805C41.379 42.4024 39.6537 40.6769 39.5759 40.5999C39.43 40.4565 39.2437 40.3614 39.042 40.3273C38.8404 40.2932 38.6331 40.3218 38.4482 40.4093C38.225 40.5148 38.2785 40.4948 36.2929 42.4805C36.1991 42.5732 36.1246 42.6834 36.0736 42.805C36.0226 42.9266 35.9961 43.057 35.9957 43.1889C35.9953 43.3207 36.021 43.4513 36.0713 43.5732C36.1215 43.6951 36.1954 43.8058 36.2886 43.899C36.3819 43.9922 36.4926 44.0661 36.6145 44.1163C36.7363 44.1666 36.867 44.1923 36.9988 44.1919C37.1306 44.1915 37.2611 44.165 37.3826 44.114C37.5042 44.063 37.6145 43.9884 37.7071 43.8946L37.875 43.7268V46.1875C37.875 46.4527 37.9804 46.7071 38.1679 46.8946C38.3554 47.0821 38.6098 47.1875 38.875 47.1875ZM51.125 13.4885V5.209C51.125 2.64688 49.0405 0.5625 46.4784 0.5625H18.5C18.2348 0.5625 17.9804 0.667857 17.7929 0.855393C17.6054 1.04293 17.5 1.29728 17.5 1.5625V18.337C17.5 19.081 18.2854 19.564 18.949 19.2305L21.7938 17.801L25.1103 19.4829C25.2504 19.554 25.4053 19.591 25.5625 19.591C25.7197 19.591 25.8746 19.554 26.0147 19.4829L29.3312 17.801L32.176 19.2305C32.8419 19.565 33.625 19.0784 33.625 18.337V7.8125C33.625 7.54728 33.5196 7.29293 33.3321 7.10539C33.1446 6.91786 32.8902 6.8125 32.625 6.8125C32.3598 6.8125 32.1054 6.91786 31.9179 7.10539C31.7304 7.29293 31.625 7.54728 31.625 7.8125V16.7154L29.7781 15.7874C29.6382 15.7171 29.4838 15.6807 29.3273 15.681C29.1708 15.6813 29.0165 15.7183 28.8769 15.7891L25.5625 17.4699L22.2481 15.789C22.1085 15.7182 21.9542 15.6812 21.7977 15.6809C21.6412 15.6806 21.4868 15.717 21.3469 15.7873L19.5 16.7154V2.5625H46.4784C47.9377 2.5625 49.125 3.74975 49.125 5.209V14.4375C49.125 14.7027 49.2304 14.9571 49.4179 15.1446C49.6054 15.3321 49.8598 15.4375 50.125 15.4375C54.4673 15.4375 58 18.9703 58 23.3125C58 27.6548 54.4673 31.1875 50.125 31.1875C43.4965 31.1875 39.8153 23.4373 44.0644 18.3103C44.2336 18.1061 44.3148 17.843 44.2901 17.579C44.2654 17.3149 44.1368 17.0715 43.9326 16.9023C43.8315 16.8184 43.7149 16.7553 43.5894 16.7166C43.4639 16.6778 43.332 16.6642 43.2013 16.6764C43.0705 16.6887 42.9434 16.7265 42.8273 16.7879C42.7112 16.8492 42.6083 16.9329 42.5245 17.034C37.18 23.482 41.8594 33.1875 50.125 33.1875C55.5518 33.1875 60 28.738 60 23.3125C60 18.1686 56.0279 13.9858 51.125 13.4885ZM50.125 17.9375C49.8598 17.9375 49.6054 18.0429 49.4179 18.2304C49.2304 18.4179 49.125 18.6723 49.125 18.9375V23.9375C49.125 24.2027 49.2304 24.4571 49.4179 24.6446C49.6054 24.8321 49.8598 24.9375 50.125 24.9375H53.5C53.7652 24.9375 54.0196 24.8321 54.2071 24.6446C54.3946 24.4571 54.5 24.2027 54.5 23.9375C54.5 23.6723 54.3946 23.4179 54.2071 23.2304C54.0196 23.0429 53.7652 22.9375 53.5 22.9375H51.125V18.9375C51.125 18.6723 51.0196 18.4179 50.8321 18.2304C50.6446 18.0429 50.3902 17.9375 50.125 17.9375Z"
        fill="#7CBE69"></path>
</svg>