<svg width="60" height="56" viewBox="0 0 60 56" fill="none" xmlns="http://www.w3.org/2000/svg">
    <path
        d="M59.7643 31.1351L49.4426 3.00238C48.7151 1.01978 46.51 -0.00121066 44.5273 0.725657L4.6087 15.3714C3.32997 15.8406 2.41247 16.9557 2.1656 18.2628C0.885116 18.8833 0 20.1963 0 21.7121V51.6784C0 53.7904 1.71836 55.5088 3.83046 55.5088H46.3509C48.4629 55.5088 50.1812 53.7905 50.1812 51.6784V38.731L57.4875 36.0504C59.475 35.3212 60.4935 33.1228 59.7643 31.1351ZM46.3509 53.5089H3.83046C2.8211 53.5089 1.99998 52.6877 1.99998 51.6784V21.7121C1.99998 20.7028 2.8211 19.8816 3.83046 19.8816H46.3509C47.3601 19.8816 48.1812 20.7027 48.1812 21.7121V23.2229H38.729C35.568 23.2229 33.6179 25.5929 33.6179 28.365C33.6179 30.9211 35.3735 33.5087 38.729 33.5087H48.1812V51.6784C48.1812 52.6877 47.3601 53.5089 46.3509 53.5089ZM48.1812 31.5087H38.729C36.5799 31.5087 35.6179 29.9297 35.6179 28.365C35.6179 26.801 36.5799 25.2229 38.729 25.2229H48.1812V31.5087ZM56.7988 34.1727L50.1814 36.6005V21.7121C50.1814 19.6001 48.463 17.8816 46.351 17.8816H4.45708C4.66917 17.5929 4.96145 17.3729 5.29757 17.249L45.2163 2.60339C46.1656 2.25489 47.2165 2.74139 47.5651 3.69138L48.6842 6.74184L28.3648 14.1968C28.2415 14.242 28.1284 14.3111 28.0318 14.4C27.9352 14.489 27.857 14.5961 27.8018 14.7153C27.7466 14.8345 27.7154 14.9633 27.7101 15.0946C27.7047 15.2258 27.7252 15.3568 27.7704 15.4801C27.8156 15.6034 27.8847 15.7165 27.9737 15.8131C28.0626 15.9097 28.1698 15.9879 28.2889 16.0431C28.4081 16.0983 28.537 16.1294 28.6682 16.1348C28.7994 16.1402 28.9304 16.1197 29.0537 16.0745L49.3731 8.61957L51.1372 13.4278L46.9976 14.9464C46.7486 15.0377 46.5461 15.2243 46.4346 15.4649C46.3232 15.7056 46.3119 15.9807 46.4032 16.2297C46.4946 16.4787 46.6811 16.6812 46.9217 16.7927C47.1624 16.9042 47.4375 16.9155 47.6865 16.8241L51.8262 15.3054L57.8866 31.8241C58.235 32.7737 57.7485 33.8244 56.7988 34.1727Z"
        fill="#7CBE69"></path>
    <path
        d="M8.66566 37.6173H14.646C16.2378 37.6173 17.5329 36.3223 17.5329 34.7304V31.1087C17.5329 29.5168 16.2378 28.2217 14.646 28.2217H8.66566C7.0738 28.2217 5.77869 29.5167 5.77869 31.1087V34.7304C5.77869 36.3223 7.0738 37.6173 8.66566 37.6173ZM7.77867 31.1088C7.77867 30.6198 8.17654 30.2218 8.66566 30.2218H14.646C15.1351 30.2218 15.533 30.6198 15.533 31.1088V34.7305C15.533 35.2195 15.1351 35.6175 14.646 35.6175H8.66566C8.17654 35.6175 7.77867 35.2195 7.77867 34.7305V31.1088ZM38.6433 41.7423H23.4529C23.1877 41.7423 22.9333 41.8476 22.7458 42.0352C22.5582 42.2227 22.4529 42.4771 22.4529 42.7423C22.4529 43.0075 22.5582 43.2618 22.7458 43.4494C22.9333 43.6369 23.1877 43.7423 23.4529 43.7423H38.6433C38.9086 43.7423 39.1629 43.6369 39.3504 43.4494C39.538 43.2618 39.6433 43.0075 39.6433 42.7423C39.6433 42.4771 39.538 42.2227 39.3504 42.0352C39.1629 41.8476 38.9086 41.7423 38.6433 41.7423ZM14.8253 42.7423C14.8253 43.0075 14.9307 43.2618 15.1182 43.4494C15.3058 43.6369 15.5601 43.7423 15.8253 43.7423H18.7089C18.9741 43.7423 19.2285 43.6369 19.416 43.4494C19.6036 43.2618 19.7089 43.0075 19.7089 42.7423C19.7089 42.4771 19.6036 42.2227 19.416 42.0352C19.2285 41.8476 18.9741 41.7423 18.7089 41.7423H15.8253C15.5601 41.7423 15.3058 41.8476 15.1182 42.0352C14.9307 42.2227 14.8253 42.4771 14.8253 42.7423ZM6.77868 43.7423H11.3363C11.6015 43.7423 11.8558 43.6369 12.0434 43.4494C12.2309 43.2618 12.3362 43.0075 12.3362 42.7423C12.3362 42.4771 12.2309 42.2227 12.0434 42.0352C11.8558 41.8476 11.6015 41.7423 11.3363 41.7423H6.77868C6.51346 41.7423 6.25911 41.8476 6.07158 42.0352C5.88404 42.2227 5.77869 42.4771 5.77869 42.7423C5.77869 43.0075 5.88404 43.2618 6.07158 43.4494C6.25911 43.6369 6.51346 43.7423 6.77868 43.7423ZM25.6175 48.1791H6.77868C6.51346 48.1791 6.25911 48.2845 6.07158 48.472C5.88404 48.6595 5.77869 48.9139 5.77869 49.1791C5.77869 49.4443 5.88404 49.6987 6.07158 49.8862C6.25911 50.0737 6.51346 50.1791 6.77868 50.1791H25.6175C25.8827 50.1791 26.137 50.0737 26.3246 49.8862C26.5121 49.6987 26.6175 49.4443 26.6175 49.1791C26.6175 48.9139 26.5121 48.6595 26.3246 48.472C26.137 48.2845 25.8827 48.1791 25.6175 48.1791Z"
        fill="#7CBE69"></path>
</svg>