<svg width="50" height="60" viewBox="0 0 50 60" fill="none" xmlns="http://www.w3.org/2000/svg">
    <path
        d="M37.0409 20.9783C37.3042 21.0101 37.5693 20.9361 37.778 20.7724C37.9867 20.6087 38.1218 20.3688 38.1537 20.1056C39.1102 12.1887 32.9171 5.25012 24.9999 5.25012C17.6937 5.25012 11.7497 11.1942 11.7497 18.5003C11.7497 25.8064 17.6937 31.7505 24.9999 31.7505C29.3379 31.7505 33.4079 29.6212 35.8869 26.0546C36.0383 25.8369 36.0969 25.5679 36.05 25.3068C36.003 25.0458 35.8543 24.8141 35.6365 24.6627C35.4187 24.5114 35.1497 24.4527 34.8887 24.4997C34.6277 24.5466 34.396 24.6953 34.2446 24.9131C32.1392 27.942 28.6833 29.7504 24.9999 29.7504C18.7965 29.7504 13.7497 24.7036 13.7497 18.5003C13.7497 12.297 18.7965 7.25015 24.9999 7.25015C31.7055 7.25015 36.9834 13.1253 36.1681 19.8656C36.1363 20.1288 36.2104 20.394 36.3741 20.6027C36.5377 20.8114 36.7776 20.9465 37.0409 20.9783Z"
        fill="#7CBE69"></path>
    <path
        d="M31.0521 45.9972H30.8387V36.0594C38.1164 33.6335 43.5 26.7668 43.5 18.5002C43.5 8.29923 35.2007 0 24.9997 0C14.7987 0 6.49951 8.29923 6.49951 18.5002C6.49951 28.525 14.4674 36.7012 24.4506 36.9925C25.004 37.0096 25.4634 36.5741 25.4794 36.0221C25.4871 35.757 25.3892 35.4997 25.2072 35.3067C25.0253 35.1138 24.7741 35.0011 24.509 34.9933C15.5319 34.7313 8.49966 27.4867 8.49966 18.5002C8.49966 9.40199 15.9016 2.00003 24.9999 2.00003C34.0981 2.00003 41.5001 9.40199 41.5001 18.5002C41.5001 25.8212 36.5913 32.3437 29.5628 34.3617C29.3542 34.4216 29.1707 34.5478 29.0401 34.7212C28.9095 34.8946 28.8388 35.1057 28.8388 35.3228V46.9972C28.8388 47.2624 28.9441 47.5168 29.1317 47.7043C29.3192 47.8919 29.5736 47.9972 29.8388 47.9972H31.0522C31.5103 47.9972 31.7808 48.5091 31.5224 48.8876L25.4702 57.7523C25.2446 58.0829 24.7562 58.084 24.5299 57.7523L18.4777 48.8876C18.2194 48.5092 18.4895 47.9972 18.9479 47.9972H20.1613C20.4265 47.9972 20.6809 47.8919 20.8684 47.7043C21.056 47.5168 21.1613 47.2624 21.1613 46.9972V40.7706C21.1613 40.5054 21.056 40.2511 20.8684 40.0635C20.6809 39.876 20.4265 39.7706 20.1613 39.7706C19.8961 39.7706 19.6417 39.876 19.4542 40.0635C19.2667 40.2511 19.1613 40.5054 19.1613 40.7706V45.9972H18.9479C16.8858 45.9972 15.6624 48.3111 16.8259 50.0154L22.8781 58.8801C23.8959 60.3709 26.101 60.3756 27.122 58.8801L33.1742 50.0154C34.3369 48.3122 33.1157 45.9972 31.0521 45.9972Z"
        fill="#7CBE69"></path>
    <path
        d="M11.3386 41.6104V35.5059C11.3386 35.2407 11.2332 34.9864 11.0457 34.7988C10.8581 34.6113 10.6038 34.5059 10.3386 34.5059C10.0733 34.5059 9.81898 34.6113 9.63145 34.7988C9.44391 34.9864 9.33855 35.2407 9.33855 35.5059V42.517C9.33855 42.7823 9.44391 43.0366 9.63145 43.2241C9.81898 43.4117 10.0733 43.517 10.3386 43.517H10.6593C11.0616 43.517 11.2992 43.9666 11.0722 44.2989L7.0964 50.1223C6.89752 50.4135 6.46964 50.4139 6.27051 50.1223L2.29471 44.2989C2.06796 43.9668 2.30509 43.517 2.70759 43.517H3.02834C3.29356 43.517 3.54792 43.4117 3.73546 43.2241C3.923 43.0366 4.02836 42.7823 4.02836 42.517V26.0003C4.02836 25.7351 3.923 25.4807 3.73546 25.2932C3.54792 25.1057 3.29356 25.0003 3.02834 25.0003C2.76312 25.0003 2.50877 25.1057 2.32123 25.2932C2.13369 25.4807 2.02833 25.7351 2.02833 26.0003V41.6104C0.397062 42.069 -0.326447 44.0069 0.64294 45.4267L4.61874 51.25C5.60888 52.7004 7.75465 52.7052 8.74817 51.25L12.724 45.4267C13.693 44.0074 12.9706 42.0692 11.3386 41.6104ZM47.9712 41.6104V26.0003C47.9712 25.7351 47.8658 25.4807 47.6783 25.2932C47.4907 25.1057 47.2364 25.0003 46.9711 25.0003C46.7059 25.0003 46.4516 25.1057 46.264 25.2932C46.0765 25.4807 45.9711 25.7351 45.9711 26.0003V42.517C45.9711 42.7823 46.0765 43.0366 46.264 43.2241C46.4516 43.4117 46.7059 43.517 46.9711 43.517H47.2919C47.694 43.517 47.9318 43.9666 47.7048 44.2989L43.729 50.1223C43.5301 50.4135 43.1022 50.4139 42.9031 50.1223L38.9273 44.2989C38.7004 43.9667 38.9377 43.517 39.3402 43.517H39.6609C39.9261 43.517 40.1805 43.4117 40.368 43.2241C40.5556 43.0366 40.6609 42.7823 40.6609 42.517V35.5059C40.6609 35.2407 40.5556 34.9864 40.368 34.7988C40.1805 34.6113 39.9261 34.5059 39.6609 34.5059C39.3957 34.5059 39.1413 34.6113 38.9538 34.7988C38.7663 34.9864 38.6609 35.2407 38.6609 35.5059V41.6104C37.0255 42.0702 36.3081 44.0098 37.2755 45.4267L41.2513 51.25C42.2416 52.7007 44.3874 52.705 45.3807 51.25L49.3565 45.4267C50.3276 44.0044 49.6001 42.0683 47.9712 41.6104ZM24.9999 28.0004C25.2651 28.0004 25.5194 27.895 25.707 27.7075C25.8945 27.5199 25.9999 27.2656 25.9999 27.0003V25.6616C28.2047 25.2833 29.8652 23.6867 29.8652 21.7798C29.8652 18.78 27.1651 18.2325 25.1937 17.8326C22.8535 17.358 22.1248 17.0221 22.1248 15.8456C22.1248 14.7793 23.4392 13.8784 24.995 13.8784C26.0571 13.8784 27.0324 14.2901 27.5404 14.9527C27.7024 15.1613 27.9404 15.2974 28.2023 15.3311C28.4643 15.3649 28.729 15.2937 28.9386 15.133C29.1482 14.9723 29.2858 14.7352 29.3212 14.4734C29.3566 14.2117 29.2871 13.9466 29.1277 13.7359C28.4162 12.8078 27.2881 12.1794 25.9999 11.9629V10.6251C25.9999 10.3599 25.8945 10.1056 25.707 9.91802C25.5194 9.73048 25.2651 9.62512 24.9999 9.62512C24.7346 9.62512 24.4803 9.73048 24.2928 9.91802C24.1052 10.1056 23.9999 10.3599 23.9999 10.6251V11.962C21.7901 12.3373 20.1248 13.9359 20.1248 15.8456C20.1248 18.8454 22.8248 19.3929 24.7962 19.7927C27.1365 20.2674 27.8652 20.6033 27.8652 21.7798C27.8652 22.846 26.5508 23.7469 24.995 23.7469C23.9329 23.7469 22.9576 23.3353 22.4496 22.6727C22.2876 22.464 22.0496 22.328 21.7877 22.2942C21.5257 22.2604 21.261 22.3317 21.0514 22.4924C20.8417 22.6531 20.7042 22.8902 20.6688 23.1519C20.6334 23.4137 20.7029 23.6788 20.8623 23.8894C21.5756 24.8199 22.7075 25.4492 23.9999 25.6643V27.0003C23.9999 27.2656 24.1052 27.5199 24.2928 27.7075C24.4803 27.895 24.7346 28.0004 24.9999 28.0004Z"
        fill="#7CBE69"></path>
</svg>