<svg width="55" height="51" viewBox="0 0 55 51" fill="none" xmlns="http://www.w3.org/2000/svg">
<g clip-path="url(#clip0_451_1217)">
<path d="M35.536 16.9773L16.2345 50.4045H1.53296L28.1817 4.24609L35.536 16.9773Z" fill="#3C8D24"/>
<path d="M54.8234 50.4047H40.1149L32.9341 37.9718L40.101 24.9146L54.8234 50.4047Z" fill="#3C8D24"/>
<path d="M33.1561 46.2697C33.1561 47.093 32.9119 47.8979 32.4545 48.5824C31.9971 49.267 31.347 49.8006 30.5863 50.1156C29.8257 50.4307 28.9887 50.5131 28.1812 50.3525C27.3737 50.1919 26.6319 49.7954 26.0498 49.2133C25.4676 48.6311 25.0711 47.8893 24.9105 47.0818C24.7499 46.2743 24.8323 45.4373 25.1474 44.6767C25.4625 43.916 25.996 43.2659 26.6806 42.8085C27.3651 42.3511 28.17 42.1069 28.9933 42.1069C30.0973 42.1069 31.1562 42.5455 31.9368 43.3262C32.7175 44.1069 33.1561 45.1657 33.1561 46.2697Z" fill="#2E3C53"/>
</g>
<defs>
<clipPath id="clip0_451_1217">
<rect width="76.3941" height="66.1675" fill="white" transform="translate(-21.57 -15.7627)"/>
</clipPath>
</defs>
</svg>
