<svg width="15" height="32" viewBox="0 0 15 32" fill="none" xmlns="http://www.w3.org/2000/svg">
<path d="M10.6502 14.5646C10.5841 14.5646 10.5173 14.5618 10.4522 14.556C10.3889 14.5504 10.3317 14.5153 10.297 14.4605C10.2621 14.4057 10.2534 14.3374 10.2735 14.2752C10.3164 14.1414 10.3553 14.007 10.3939 13.8732C10.4832 13.5643 10.5755 13.2452 10.7147 12.9479C10.8502 12.6577 11.0315 12.3951 11.2069 12.1407C11.2816 12.0325 11.3563 11.9241 11.4272 11.8142C11.4324 11.806 11.4382 11.7983 11.4444 11.791L12.1906 10.9181C12.1946 10.9134 12.199 10.9089 12.2033 10.9046C12.7348 10.383 13.3688 10.2122 14.157 10.1163C14.1651 10.1153 14.1731 10.1149 14.181 10.1149C14.2322 10.1149 14.2821 10.1346 14.3202 10.1707C14.3645 10.2125 14.3891 10.2722 14.3876 10.3341C14.3385 12.4296 12.4525 14.5646 10.6502 14.5646Z" fill="#2E3C53"/>
<path d="M9.54833 0.487339C9.55765 0.48601 9.56717 0.485381 9.57629 0.485381C9.62505 0.485381 9.67259 0.503147 9.71014 0.536372C10.5149 1.24459 11.0491 2.40859 11.1392 3.6498C11.2162 4.71077 10.9505 5.68786 10.4101 6.33068C10.3708 6.37734 10.314 6.40406 10.2543 6.40406H10.2529C10.1925 6.40364 10.1355 6.37601 10.0966 6.3283C8.45723 4.32235 8.2245 2.38823 9.40536 0.57946C9.43798 0.529098 9.49005 0.495663 9.54833 0.487339Z" fill="#2E3C53"/>
<path d="M10.7767 10.9146C10.7575 10.9206 10.7376 10.9236 10.7178 10.9236C10.6831 10.9236 10.6484 10.9144 10.6174 10.8966C10.5689 10.8686 10.5331 10.8215 10.5184 10.766C9.90937 8.46042 10.829 6.16677 12.6577 5.43071C12.6819 5.42106 12.7073 5.41616 12.7326 5.41616C12.7656 5.41616 12.7987 5.42428 12.8287 5.44078C12.8815 5.46946 12.9198 5.52066 12.9336 5.58075C13.4765 7.9442 12.4889 10.387 10.7767 10.9146Z" fill="#2E3C53"/>
<path d="M10.567 18.6653C10.5004 18.6653 10.4334 18.6623 10.3681 18.6565C10.3082 18.6511 10.2537 18.619 10.2183 18.5685C10.1832 18.518 10.171 18.4542 10.1848 18.3936C10.3954 17.4797 10.6168 16.6655 11.1811 15.982C11.9067 14.6646 13.1574 14.3555 14.0355 14.2376C14.0444 14.2363 14.0533 14.2359 14.062 14.2359C14.1126 14.2359 14.162 14.2552 14.2002 14.2907C14.2451 14.3325 14.2701 14.3924 14.2686 14.4549C14.2223 16.5405 12.3539 18.6653 10.567 18.6653Z" fill="#2E3C53"/>
<path d="M0.69505 30.185C0.70106 30.1224 0.733479 30.0657 0.783319 30.03C1.63474 29.4223 2.65378 29.0878 3.65256 29.0878C4.81254 29.0878 5.81294 29.5394 6.3976 30.3266C6.43143 30.3724 6.44616 30.4302 6.43832 30.4874C6.43049 30.5445 6.4007 30.5959 6.35566 30.6299C5.58008 31.2168 4.6123 31.54 3.63027 31.54C2.50209 31.54 1.45293 31.1081 0.751713 30.3547C0.709773 30.3096 0.688904 30.2475 0.69505 30.185Z" fill="#2E3C53"/>
<path d="M3.95512 27.9545C3.95471 27.8899 3.9826 27.8282 4.03096 27.7873C4.97605 26.9878 6.09713 26.5476 7.18749 26.5476C8.14987 26.5476 9.00149 26.8825 9.65044 27.5161C9.69299 27.5577 9.71656 27.6161 9.71534 27.6767C9.71412 27.7372 9.68806 27.7944 9.64362 27.834C8.77687 28.6079 7.69522 29.0341 6.59764 29.0341C5.64552 29.0341 4.75858 28.7181 4.03298 28.1203C3.98409 28.0803 3.95552 28.0193 3.95512 27.9545Z" fill="#2E3C53"/>
<path d="M8.50841 22.6577C8.45202 22.6418 8.40441 22.602 8.378 22.5481C8.35153 22.4941 8.34829 22.431 8.36916 22.3743C8.73986 21.3729 9.3264 20.6622 10.1619 20.202L10.6056 19.8998C11.0538 19.5535 11.5651 19.3921 12.2138 19.3921C12.5473 19.3921 12.8879 19.4337 13.2368 19.4801C13.2986 19.4882 13.3533 19.5249 13.3862 19.5796C13.419 19.6344 13.426 19.7016 13.4058 19.7624C12.8309 21.4788 11.095 22.7731 9.36794 22.7731C9.07179 22.7729 8.78268 22.7341 8.50841 22.6577Z" fill="#2E3C53"/>
<path d="M9.1261 6.52257C9.23193 6.7236 9.26164 6.94743 9.29041 7.16406C9.30264 7.25548 9.31398 7.34194 9.33093 7.42371C9.34248 7.48002 9.33154 7.53863 9.30095 7.58641C9.27035 7.63432 9.2222 7.66726 9.16784 7.67818C9.08416 7.69489 8.99717 7.72056 8.90472 7.74777C8.73115 7.79891 8.55178 7.85179 8.36862 7.85179C8.31554 7.85179 8.26408 7.84731 8.21525 7.83808C6.98415 7.60991 5.96328 6.93589 5.18129 5.83443C5.06992 5.67754 5.00273 5.49477 4.93789 5.31794C4.90851 5.23813 4.87819 5.15524 4.84361 5.0748C4.82045 5.02045 4.82004 4.95855 4.8426 4.90399C4.86516 4.84943 4.90872 4.80704 4.96268 4.7869C5.26503 4.67456 5.59319 4.61741 5.93809 4.61741C7.22444 4.61741 8.5355 5.40076 9.1261 6.52257Z" fill="#2E3C53"/>
<path d="M7.23748 23.1497C7.20979 23.1497 7.1819 23.1439 7.15522 23.1319C6.04791 22.6332 5.73259 21.6077 5.59185 20.88C5.44077 20.0994 5.46846 19.2878 5.5154 18.5968C5.54187 18.2075 5.75515 17.9457 6.04629 17.9457C6.17549 17.9457 6.37364 18 6.5834 18.2586C6.6404 18.3288 6.69868 18.3993 6.75717 18.4701C7.09505 18.8781 7.44454 19.2999 7.62966 19.7982C7.96362 20.6963 8.2397 21.879 7.40422 23.0618C7.36438 23.1186 7.30177 23.1497 7.23748 23.1497Z" fill="#2E3C53"/>
<path d="M9.4394 19.1171C9.42906 19.1732 9.39766 19.2226 9.3518 19.2543C9.31749 19.2783 9.27718 19.2909 9.23632 19.2909C9.22288 19.2909 9.20944 19.2896 9.196 19.2868C9.11793 19.2707 9.03358 19.2609 8.9445 19.2504C8.72832 19.2251 8.50491 19.199 8.3121 19.078C7.15603 18.3525 6.43191 17.2551 6.15954 15.8161C6.12962 15.6577 6.15151 15.5013 6.17899 15.303C6.19385 15.1969 6.2106 15.0764 6.22383 14.9296C6.23045 14.857 6.27199 14.793 6.33439 14.7596C6.36411 14.7436 6.39679 14.7356 6.42948 14.7356C6.465 14.7356 6.5006 14.7451 6.5322 14.7639L7.93734 15.598C7.95632 15.6029 7.97476 15.6107 7.99232 15.6212C8.84151 16.1368 9.36369 16.96 9.58851 18.138C9.63464 18.3792 9.56886 18.6176 9.50524 18.8484C9.47971 18.9429 9.45513 19.0319 9.4394 19.1171Z" fill="#2E3C53"/>
<path d="M4.55382 26.1413C4.26713 26.1413 4.07108 25.8768 3.93216 25.6462C3.39937 24.7618 3.2514 23.7374 3.46677 22.4223C3.52445 22.0696 3.65796 21.741 3.79905 21.3933C3.86334 21.2353 3.92966 21.0719 3.99024 20.902C4.01259 20.8397 4.06156 20.7916 4.12268 20.7719C4.14273 20.7655 4.1634 20.7623 4.18406 20.7623C4.22627 20.7623 4.26794 20.7755 4.30313 20.8015C5.00165 21.3116 5.50485 22.2456 5.64931 23.3002C5.78013 24.2552 5.59251 25.1694 5.14732 25.7454C5.00455 25.9296 4.80823 26.1413 4.55382 26.1413Z" fill="#2E3C53"/>
<path d="M2.08545 23.2173C2.12368 23.1843 2.17082 23.1674 2.21789 23.1674C2.25841 23.1674 2.29913 23.1796 2.33425 23.2046C2.90445 23.6075 3.24585 24.3718 3.29582 25.3572C3.35491 26.5222 2.9805 27.7011 2.38531 28.2244C2.20924 28.3792 2.05628 28.4513 1.90419 28.4513C1.60723 28.4513 1.43752 28.1697 1.38173 28.0769C0.900474 27.2775 0.93593 26.3931 1.00461 25.7972C1.10653 24.9133 1.28239 23.9123 2.08545 23.2173Z" fill="#2E3C53"/>
<path d="M7.79112 3.89866C7.63795 3.92755 7.47992 3.94238 7.32162 3.94238C5.42969 3.94238 3.58834 1.87732 3.46394 0.249363C3.45509 0.1336 3.53688 0.0316862 3.64824 0.0194454C3.7671 0.00657505 3.88772 0 4.00699 0C5.82747 0 7.48796 1.5308 7.95564 3.64021C7.96827 3.69714 7.95794 3.75709 7.92694 3.80591C7.89547 3.8546 7.8465 3.88817 7.79112 3.89866Z" fill="#2E3C53"/>
<path d="M9.35882 15.2864C9.32532 15.2886 9.29162 15.2894 9.25772 15.2894C8.28501 15.2894 7.23308 14.4587 6.62181 13.6354C6.04729 12.8616 5.80822 12.066 5.96571 11.453C5.9884 11.3644 6.06303 11.3008 6.1513 11.2944C6.22545 11.289 6.29947 11.2865 6.37139 11.2865C7.06512 11.2865 7.65639 11.536 8.12961 12.0281C9.23773 12.6953 9.89613 14.145 9.54069 15.1465C9.51219 15.2266 9.44087 15.2813 9.35882 15.2864Z" fill="#2E3C53"/>
<path d="M9.22983 11.5517H9.21807C7.79153 11.5517 5.9316 9.91111 5.66436 8.41717C5.64802 8.32554 5.69064 8.2337 5.76979 8.18963C5.9882 8.06806 6.24571 8.00637 6.53483 8.00637C7.84481 8.00637 9.73371 9.3623 9.94448 10.8026C9.97879 11.0363 9.94307 11.2133 9.83535 11.3439C9.68657 11.5245 9.4458 11.5502 9.22983 11.5517Z" fill="#2E3C53"/>
<path d="M6.11137 25.4809C6.0587 25.4469 6.02358 25.3899 6.01568 25.3261C6.00784 25.2624 6.02831 25.1982 6.07105 25.1517C7.06592 24.0701 8.34551 23.4499 9.58154 23.4499C10.3365 23.4499 11.0373 23.6845 11.608 24.1281C11.6541 24.1639 11.6834 24.2181 11.6895 24.2773C11.6954 24.3366 11.6772 24.3957 11.6392 24.4406C10.7689 25.4682 9.47983 26.0817 8.19092 26.0817C7.43892 26.0813 6.7198 25.8737 6.11137 25.4809Z" fill="#2E3C53"/>
</svg>
