<svg width="1920" height="564" viewBox="0 0 1920 564" fill="none" xmlns="http://www.w3.org/2000/svg">
<g opacity="0.7">
<path d="M-198.158 469.362C-97.863 514.284 145.981 569.785 318.992 432.414C535.256 260.701 1114.52 -3.75189 1404.94 90.8659C1695.36 185.484 1741.26 -38.3204 2025.73 385.035" stroke="#7CBE69"/>
<path opacity="0.5" d="M-146.437 472.021C-46.1418 516.942 197.702 572.443 370.713 435.072C586.977 263.36 1166.24 -1.09369 1456.66 93.5242C1747.08 188.142 1792.98 -35.6622 2077.45 387.693" stroke="#7CBE69"/>
<path opacity="0.2" d="M-94.7161 474.679C5.57938 519.6 249.423 575.101 422.434 437.73C638.699 266.018 1217.96 1.56427 1508.38 96.1821C1798.8 190.8 1844.7 -33.0043 2129.17 390.351" stroke="#7CBE69"/>
<path opacity="0.1" d="M-42.9948 477.337C57.3006 522.258 301.144 577.759 474.156 440.388C690.42 268.676 1269.68 4.22223 1560.1 98.8401C1850.52 193.458 1896.42 -30.3463 2180.89 393.009" stroke="#7CBE69"/>
<path opacity="0.04" d="M8.7262 479.995C109.022 524.916 352.865 580.417 525.877 443.047C742.141 271.334 1321.4 6.88043 1611.82 101.498C1902.24 196.116 1948.14 -27.6881 2232.62 395.667" stroke="#7CBE69"/>
<path opacity="0.5" d="M-249.88 466.705C-149.584 511.626 94.2596 567.127 267.271 429.756C483.535 258.043 1062.8 -6.40989 1353.22 88.208C1643.64 182.826 1689.54 -40.9784 1974.01 382.377" stroke="#7CBE69"/>
<path opacity="0.2" d="M-301.601 464.047C-201.305 508.968 42.5385 564.469 215.55 427.098C431.814 255.385 1011.08 -9.06785 1301.5 85.55C1591.91 180.168 1637.81 -43.6364 1922.29 379.719" stroke="#7CBE69"/>
<path opacity="0.1" d="M-353.322 461.389C-253.026 506.31 -9.18269 561.811 163.829 424.44C380.093 252.728 959.357 -11.7258 1249.77 82.892C1540.19 177.51 1586.09 -46.2944 1870.57 377.061" stroke="#7CBE69"/>
<path opacity="0.05" d="M-405.043 458.73C-304.748 503.651 -60.9039 559.152 112.107 421.781C328.372 250.069 907.636 -14.3847 1198.05 80.2331C1488.47 174.851 1534.37 -48.9533 1818.85 374.402" stroke="#7CBE69"/>
</g>
</svg>
